<svg width="220" height="65" viewBox="0 0 220 65" fill="none" xmlns="http://www.w3.org/2000/svg">
<path d="M219.211 58.0909C219.211 61.6155 216.389 64.4704 212.898 64.4704H6.3207C2.83188 64.4704 0 61.6155 0 58.0909V7.21645C0 3.69356 2.83188 0.828613 6.3207 0.828613H212.897C216.389 0.828613 219.209 3.69356 219.209 7.21645L219.211 58.0909Z" fill="#071451"/>
<path d="M45.0182 32.6775C44.9713 27.4632 49.2877 24.9265 49.485 24.8084C47.0405 21.2443 43.2515 20.7573 41.92 20.7185C38.7377 20.3836 35.6509 22.6227 34.0298 22.6227C32.3764 22.6227 29.8801 20.7508 27.1896 20.8058C23.7274 20.8592 20.4885 22.8637 18.7121 25.9764C15.0461 32.3232 17.7803 41.6501 21.2926 46.7802C23.0496 49.2927 25.1026 52.098 27.7898 51.9994C30.4188 51.891 31.4008 50.3233 34.5734 50.3233C37.7169 50.3233 38.6391 51.9994 41.3797 51.9363C44.2012 51.891 45.9776 49.4124 47.6731 46.8773C49.7034 43.9975 50.5188 41.1615 50.5512 41.0159C50.4849 40.9932 45.0716 38.9272 45.0182 32.6775Z" fill="white"/>
<path d="M39.8407 17.3436C41.2547 15.5753 42.2221 13.1696 41.9536 10.7283C39.907 10.8189 37.3476 12.1439 35.8737 13.8733C34.5698 15.3974 33.4049 17.8953 33.7058 20.2444C36.0048 20.4159 38.3652 19.0844 39.8407 17.3436Z" fill="white"/>
<path d="M132.577 45.388C132.577 47.0733 131.992 48.4445 130.817 49.5031C129.527 50.6599 127.73 51.2375 125.42 51.2375C123.288 51.2375 121.579 50.8266 120.286 50.0033L121.021 47.3577C122.415 48.2003 123.944 48.6232 125.61 48.6232C126.805 48.6232 127.736 48.3522 128.404 47.8133C129.07 47.2743 129.402 46.5507 129.402 45.6485C129.402 44.8446 129.128 44.1672 128.578 43.6178C128.032 43.0684 127.119 42.5578 125.845 42.0858C122.376 40.792 120.643 38.8968 120.643 36.4045C120.643 34.7757 121.25 33.4403 122.467 32.4011C123.679 31.3604 125.295 30.8408 127.317 30.8408C129.12 30.8408 130.618 31.155 131.813 31.7817L131.02 34.3693C129.903 33.7619 128.641 33.4582 127.228 33.4582C126.111 33.4582 125.239 33.7336 124.614 34.2815C124.085 34.7713 123.82 35.3683 123.82 36.0755C123.82 36.8586 124.122 37.5062 124.73 38.0154C125.258 38.4859 126.218 38.995 127.612 39.5444C129.317 40.2307 130.569 41.0332 131.374 41.9533C132.177 42.8704 132.577 44.0183 132.577 45.388Z" fill="white"/>
<path d="M143.071 39.04H139.573V45.9763C139.573 47.7406 140.189 48.622 141.425 48.622C141.992 48.622 142.463 48.5728 142.835 48.4746L142.923 50.885C142.297 51.1187 141.474 51.2363 140.454 51.2363C139.201 51.2363 138.221 50.8537 137.514 50.0899C136.81 49.3247 136.455 48.0413 136.455 46.2384V39.037H134.371V36.6549H136.455V34.0391L139.573 33.0981V36.6549H143.071V39.04Z" fill="white"/>
<path d="M158.857 43.6835C158.857 45.8795 158.229 47.6824 156.975 49.0923C155.661 50.5439 153.916 51.2675 151.741 51.2675C149.644 51.2675 147.976 50.5722 146.731 49.1816C145.486 47.7911 144.864 46.0358 144.864 43.9202C144.864 41.7063 145.504 39.893 146.789 38.4831C148.071 37.0717 149.801 36.366 151.976 36.366C154.072 36.366 155.759 37.0612 157.032 38.4533C158.25 39.8036 158.857 41.547 158.857 43.6835ZM155.564 43.7862C155.564 42.4686 155.283 41.3386 154.712 40.3962C154.047 39.2557 153.096 38.687 151.863 38.687C150.587 38.687 149.618 39.2572 148.952 40.3962C148.382 41.3401 148.101 42.488 148.101 43.8457C148.101 45.1633 148.382 46.2933 148.952 47.2343C149.639 48.3747 150.597 48.9434 151.834 48.9434C153.046 48.9434 153.998 48.3628 154.684 47.2045C155.269 46.2442 155.564 45.1023 155.564 43.7862Z" fill="white"/>
<path d="M169.175 39.4493C168.861 39.3913 168.526 39.3615 168.174 39.3615C167.058 39.3615 166.194 39.7828 165.587 40.627C165.058 41.3714 164.793 42.3123 164.793 43.4483V50.9444H161.621L161.65 41.157C161.65 39.5104 161.61 38.0111 161.531 36.6593H164.296L164.412 39.3927H164.5C164.835 38.4533 165.363 37.697 166.087 37.1298C166.794 36.6191 167.558 36.3645 168.381 36.3645C168.675 36.3645 168.94 36.3853 169.175 36.4226V39.4493Z" fill="white"/>
<path d="M183.371 43.1251C183.371 43.6939 183.334 44.1733 183.255 44.5648H173.732C173.769 45.9762 174.229 47.0556 175.114 47.8C175.916 48.4655 176.954 48.799 178.228 48.799C179.638 48.799 180.925 48.5742 182.081 48.1231L182.579 50.3265C181.227 50.9161 179.631 51.2094 177.789 51.2094C175.574 51.2094 173.835 50.5573 172.569 49.2546C171.307 47.9518 170.674 46.2025 170.674 44.008C170.674 41.8537 171.262 40.0597 172.44 38.6289C173.673 37.1014 175.339 36.3376 177.435 36.3376C179.494 36.3376 181.053 37.1014 182.111 38.6289C182.949 39.8423 183.371 41.343 183.371 43.1251ZM180.344 42.3018C180.365 41.3609 180.158 40.548 179.728 39.8617C179.178 38.9788 178.334 38.5381 177.198 38.5381C176.16 38.5381 175.316 38.9684 174.672 39.8319C174.143 40.5182 173.829 41.3415 173.732 42.3003H180.344V42.3018Z" fill="white"/>
<path d="M81.3706 50.9447H77.9895L76.1374 45.1249H69.6998L67.9356 50.9447H64.6438L71.0219 31.1316H74.9613L81.3706 50.9447ZM75.5791 42.6833L73.9042 37.5097C73.727 36.9811 73.395 35.7365 72.9052 33.7772H72.8457C72.6506 34.6199 72.3365 35.8645 71.9047 37.5097L70.2596 42.6833H75.5791Z" fill="white"/>
<path d="M97.7729 43.6254C97.7729 46.0552 97.1163 47.9757 95.8032 49.3856C94.627 50.6407 93.1665 51.2675 91.4231 51.2675C89.5412 51.2675 88.1894 50.5916 87.3661 49.2397H87.3065V56.7657H84.1324V41.3609C84.1324 39.8334 84.0922 38.2657 84.0148 36.6578H86.8063L86.9835 38.9223H87.043C88.1016 37.2161 89.708 36.3645 91.8638 36.3645C93.5491 36.3645 94.956 37.03 96.0816 38.3625C97.2101 39.6965 97.7729 41.4503 97.7729 43.6254ZM94.5392 43.7416C94.5392 42.351 94.2265 41.2046 93.5982 40.3024C92.9119 39.3615 91.9903 38.891 90.835 38.891C90.0519 38.891 89.3402 39.153 88.7045 39.6697C88.0673 40.1907 87.6504 40.8711 87.4554 41.7138C87.3571 42.1068 87.308 42.4284 87.308 42.6815V45.0636C87.308 46.1028 87.6266 46.9797 88.2638 47.6958C88.901 48.412 89.7288 48.7693 90.7472 48.7693C91.9427 48.7693 92.8732 48.3077 93.5387 47.3877C94.2057 46.4661 94.5392 45.2512 94.5392 43.7416Z" fill="white"/>
<path d="M114.205 43.6254C114.205 46.0552 113.549 47.9757 112.234 49.3856C111.059 50.6407 109.599 51.2675 107.855 51.2675C105.974 51.2675 104.622 50.5916 103.8 49.2397H103.74V56.7657H100.566V41.3609C100.566 39.8334 100.526 38.2657 100.449 36.6578H103.24L103.417 38.9223H103.477C104.534 37.2161 106.14 36.3645 108.298 36.3645C109.981 36.3645 111.388 37.03 112.517 38.3625C113.641 39.6965 114.205 41.4503 114.205 43.6254ZM110.972 43.7416C110.972 42.351 110.657 41.2046 110.029 40.3024C109.343 39.3615 108.424 38.891 107.267 38.891C106.483 38.891 105.773 39.153 105.135 39.6697C104.498 40.1907 104.083 40.8711 103.888 41.7138C103.791 42.1068 103.74 42.4284 103.74 42.6815V45.0636C103.74 46.1028 104.059 46.9797 104.693 47.6958C105.33 48.4105 106.158 48.7693 107.18 48.7693C108.375 48.7693 109.306 48.3077 109.971 47.3877C110.638 46.4661 110.972 45.2512 110.972 43.7416Z" fill="white"/>
<path d="M69.2031 16.9688H70.7656C72.2734 16.9688 73.1719 17.6719 73.1719 18.8516C73.1719 20 72.2188 20.7891 70.8125 20.7891C69.3672 20.7891 68.3672 20.0781 68.2656 18.9688H66.5781C66.6797 20.9531 68.3672 22.2734 70.8203 22.2734C73.1797 22.2734 74.9688 20.8359 74.9688 18.9375C74.9688 17.4062 74.0312 16.3359 72.5234 16.1484V16.0859C73.7734 15.7891 74.625 14.7422 74.625 13.4844C74.625 11.7031 73.0703 10.4531 70.8516 10.4531C68.5078 10.4531 66.9844 11.7031 66.8672 13.7188H68.5234C68.625 12.6016 69.4766 11.9141 70.7969 11.9141C72.0938 11.9141 72.8984 12.5859 72.8984 13.6641C72.8984 14.75 72.0078 15.5078 70.7188 15.5078H69.2031V16.9688ZM79.3359 20.8047C78.4297 20.8047 77.8359 20.3359 77.8359 19.6172C77.8359 18.9141 78.4062 18.4688 79.4141 18.3984L81.4375 18.2734V18.9219C81.4375 19.9922 80.5156 20.8047 79.3359 20.8047ZM78.8672 22.1406C79.9453 22.1406 80.9844 21.5625 81.4609 20.6484H81.5V22H83.1172V16.3359C83.1172 14.6875 81.8438 13.6328 79.8516 13.6328C77.8203 13.6328 76.5547 14.7266 76.4609 16.2109H78.0547C78.2031 15.4766 78.8125 15.0078 79.7891 15.0078C80.8203 15.0078 81.4375 15.5547 81.4375 16.4688V17.1016L79.1875 17.2344C77.2344 17.3438 76.1328 18.2266 76.1328 19.6641C76.1328 21.1406 77.2578 22.1406 78.8672 22.1406ZM90.3359 15.1172V13.7812H84.8906V22H86.5703V15.1172H90.3359ZM96.0391 13.6484C94.8516 13.6484 93.9062 14.25 93.4219 15.1953H93.3906V13.7812H91.7578V24.7188H93.4453V20.6484H93.4844C93.9531 21.5625 94.8906 22.1406 96.0703 22.1406C98.1328 22.1406 99.5 20.4922 99.5 17.8906C99.5 15.2891 98.125 13.6484 96.0391 13.6484ZM95.5938 20.7109C94.2969 20.7109 93.4375 19.6016 93.4375 17.8906C93.4375 16.1953 94.3047 15.0703 95.5938 15.0703C96.9297 15.0703 97.7656 16.1719 97.7656 17.8906C97.7656 19.6172 96.9297 20.7109 95.5938 20.7109ZM101.555 25.0625C103.266 25.0625 104.07 24.4219 104.773 22.4297L107.859 13.7812H106.078L103.992 20.4688H103.969L101.883 13.7812H100.055L103.023 22.0078C103.023 22.0156 102.875 22.5 102.875 22.5156C102.617 23.3594 102.203 23.6875 101.414 23.6875C101.273 23.6875 100.992 23.6875 100.867 23.6562V25.0234C100.992 25.0469 101.422 25.0625 101.555 25.0625ZM111.891 22.1562C113.93 22.1562 115.25 21.125 115.25 19.5625C115.25 18.625 114.695 17.9453 113.648 17.7031V17.6406C114.445 17.4375 114.961 16.7266 114.961 15.8906C114.961 14.5234 113.883 13.6328 111.891 13.6328C110.055 13.6328 108.828 14.5469 108.656 16.0078H110.273C110.383 15.3672 110.992 14.9766 111.898 14.9766C112.859 14.9766 113.312 15.4219 113.312 16.0547C113.312 16.7734 112.82 17.1328 111.875 17.1328H110.695V18.375H111.898C113.016 18.375 113.57 18.75 113.57 19.5703C113.57 20.2969 112.969 20.7969 111.891 20.7969C110.945 20.7969 110.32 20.4062 110.148 19.6953H108.484C108.633 21.2109 109.969 22.1562 111.891 22.1562ZM118.398 22L122.195 16.2266H122.258V22H123.922V13.7812H122.258L118.461 19.5391H118.398V13.7812H116.734V22H118.398ZM131.984 13.7812H125.148V15.1172H127.727V22H129.406V15.1172H131.984V13.7812ZM136.508 14.9922C137.688 14.9922 138.484 15.875 138.523 17.1328H134.414C134.5 15.8906 135.328 14.9922 136.508 14.9922ZM138.516 19.5859C138.289 20.3047 137.578 20.7891 136.617 20.7891C135.266 20.7891 134.406 19.8438 134.406 18.4141V18.3125H140.211V17.7344C140.211 15.2422 138.789 13.6328 136.508 13.6328C134.188 13.6328 132.703 15.3516 132.703 17.9297C132.703 20.5234 134.164 22.1562 136.578 22.1562C138.461 22.1562 139.883 21.0859 140.117 19.5859H138.516ZM148.297 15.0078C149.117 15.0078 149.562 15.3906 149.562 16.0703C149.562 16.7969 149.086 17.1641 148.133 17.1641H146.57V15.0078H148.297ZM148.242 18.3438C149.352 18.3438 149.898 18.75 149.898 19.5625C149.898 20.3516 149.383 20.7734 148.43 20.7734H146.57V18.3438H148.242ZM144.906 22H148.688C150.469 22 151.578 21.0781 151.578 19.6328C151.578 18.6016 150.875 17.8516 149.812 17.7109V17.6484C150.602 17.5 151.211 16.7266 151.211 15.875C151.211 14.5781 150.242 13.7812 148.641 13.7812H144.906V22Z" fill="white"/>
</svg>
