<svg width="21" height="26" viewBox="0 0 21 26" fill="none" xmlns="http://www.w3.org/2000/svg">
<path d="M18.1364 9.59939V6.92045C18.1364 3.10466 14.7105 0 10.5 0C6.2895 0 2.86364 3.10466 2.86364 6.92045V9.59939C1.24043 9.87907 0 11.2937 0 12.9961V22.323C0 24.2249 1.5478 25.7727 3.4502 25.7727H17.5498C19.4522 25.7727 21 24.2249 21 22.3225V12.9957C21 11.2937 19.7596 9.87907 18.1364 9.59939ZM3.81818 6.92045C3.81818 3.63061 6.81545 0.954545 10.5 0.954545C14.1845 0.954545 17.1818 3.63061 17.1818 6.92045V9.54545H3.81818V6.92045ZM20.0455 22.3225C20.0455 23.6985 18.9258 24.8182 17.5498 24.8182H3.4502C2.07423 24.8182 0.954545 23.6985 0.954545 22.3225V12.9957C0.954545 11.6197 2.07423 10.5 3.4502 10.5H17.5498C18.9258 10.5 20.0455 11.6197 20.0455 12.9957V22.3225Z" fill="#B4C5E8"/>
<path d="M10.4999 13.3638C9.44705 13.3638 8.59082 14.22 8.59082 15.2729V18.1365C8.59082 19.1894 9.44705 20.0456 10.4999 20.0456C11.5528 20.0456 12.409 19.1894 12.409 18.1365V15.2729C12.409 14.22 11.5528 13.3638 10.4999 13.3638ZM11.4545 18.1365C11.4545 18.6629 11.0263 19.091 10.4999 19.091C9.97348 19.091 9.54537 18.6629 9.54537 18.1365V15.2729C9.54537 14.7464 9.97348 14.3183 10.4999 14.3183C11.0263 14.3183 11.4545 14.7464 11.4545 15.2729V18.1365Z" fill="#B4C5E8"/>
</svg>
