<svg width="12" height="22" viewBox="0 0 12 22" fill="none" xmlns="http://www.w3.org/2000/svg">
<path d="M2.87759 4.2607C2.87759 4.81511 2.87759 7.28967 2.87759 7.28967H0.5V10.9935H2.87759V22H7.76167V10.9938H11.0391C11.0391 10.9938 11.3461 9.21785 11.4948 7.27601C11.0683 7.27601 7.78014 7.27601 7.78014 7.27601C7.78014 7.27601 7.78014 5.12124 7.78014 4.74355C7.78014 4.36504 8.31265 3.8559 8.83897 3.8559C9.3643 3.8559 10.4731 3.8559 11.5 3.8559C11.5 3.35162 11.5 1.60921 11.5 1.32306e-08C10.1291 1.32306e-08 8.5694 1.32306e-08 7.88191 1.32306e-08C2.75686 -0.000255734 2.87759 3.70726 2.87759 4.2607Z" fill="#A1AFCC"/>
</svg>
