<svg width="10" height="9" viewBox="0 0 10 9" fill="none" xmlns="http://www.w3.org/2000/svg">
<path d="M0.562114 3.65028L0.546504 3.65398H7.23805L5.13447 1.36961C5.03146 1.25808 4.97496 1.107 4.97496 0.948426C4.97496 0.789855 5.03146 0.639831 5.13447 0.528039L5.46179 0.173194C5.56471 0.0616661 5.70187 0 5.84813 0C5.99447 0 6.13171 0.0612257 6.23463 0.172753L9.84057 4.07966C9.9439 4.19163 10.0004 4.34077 10 4.49943C10.0004 4.65897 9.9439 4.8082 9.84057 4.91999L6.23463 8.82725C6.13171 8.93869 5.99455 9 5.84813 9C5.70187 9 5.56471 8.9386 5.46179 8.82725L5.13447 8.4724C5.03146 8.36105 4.97496 8.21235 4.97496 8.05378C4.97496 7.89529 5.03146 7.75443 5.13447 7.64299L7.26179 5.34584H0.554634C0.253252 5.34584 0 5.06438 0 4.73799V4.23611C0 3.90972 0.260732 3.65028 0.562114 3.65028Z" fill="#526796"/>
</svg>
