<svg width="25" height="25" viewBox="0 0 25 25" fill="none" xmlns="http://www.w3.org/2000/svg">
<path d="M18.75 11.25C19.4404 11.25 20 10.6904 20 10C20 9.30964 19.4404 8.75 18.75 8.75C18.0596 8.75 17.5 9.30964 17.5 10C17.5 10.6904 18.0596 11.25 18.75 11.25Z" fill="#B7C1D8"/>
<path d="M21.0938 1.95312H19.8242V0.976562C19.8242 0.437207 19.387 0 18.8477 0C18.3083 0 17.8711 0.437207 17.8711 0.976562V1.95312H13.4277V0.976562C13.4277 0.437207 12.9905 0 12.4512 0C11.9118 0 11.4746 0.437207 11.4746 0.976562V1.95312H7.08008V0.976562C7.08008 0.437207 6.64287 0 6.10352 0C5.56416 0 5.12695 0.437207 5.12695 0.976562V1.95312H3.90625C1.75234 1.95312 0 3.70547 0 5.85938V21.0938C0 23.2477 1.75234 25 3.90625 25H11.377C11.9163 25 12.3535 24.5628 12.3535 24.0234C12.3535 23.4841 11.9163 23.0469 11.377 23.0469H3.90625C2.8293 23.0469 1.95312 22.1707 1.95312 21.0938V5.85938C1.95312 4.78242 2.8293 3.90625 3.90625 3.90625H5.12695V4.88281C5.12695 5.42217 5.56416 5.85938 6.10352 5.85938C6.64287 5.85938 7.08008 5.42217 7.08008 4.88281V3.90625H11.4746V4.88281C11.4746 5.42217 11.9118 5.85938 12.4512 5.85938C12.9905 5.85938 13.4277 5.42217 13.4277 4.88281V3.90625H17.8711V4.88281C17.8711 5.42217 18.3083 5.85938 18.8477 5.85938C19.387 5.85938 19.8242 5.42217 19.8242 4.88281V3.90625H21.0938C22.1707 3.90625 23.0469 4.78242 23.0469 5.85938V11.4258C23.0469 11.9651 23.4841 12.4023 24.0234 12.4023C24.5628 12.4023 25 11.9651 25 11.4258V5.85938C25 3.70547 23.2477 1.95312 21.0938 1.95312Z" fill="#B7C1D8"/>
<path d="M19.375 13.75C16.2733 13.75 13.75 16.2733 13.75 19.375C13.75 22.4767 16.2733 25 19.375 25C22.4767 25 25 22.4767 25 19.375C25 16.2733 22.4767 13.75 19.375 13.75ZM19.375 23.1405C17.2987 23.1405 15.6095 21.4513 15.6095 19.375C15.6095 17.2987 17.2987 15.6095 19.375 15.6095C21.4513 15.6095 23.1405 17.2987 23.1405 19.375C23.1405 21.4513 21.4513 23.1405 19.375 23.1405Z" fill="#B7C1D8"/>
<path d="M20.163 18.1481H19.6739V17.1759C19.6739 16.6645 19.1873 16.25 18.587 16.25C17.9866 16.25 17.5 16.6645 17.5 17.1759V19.0741C17.5 19.5855 17.9866 20 18.587 20H20.163C20.7634 20 21.25 19.5855 21.25 19.0741C21.25 18.5627 20.7634 18.1481 20.163 18.1481Z" fill="#B7C1D8"/>
<path d="M14.375 11.25C14.7202 11.25 15 10.6904 15 10C15 9.30964 14.7202 8.75 14.375 8.75C14.0298 8.75 13.75 9.30964 13.75 10C13.75 10.6904 14.0298 11.25 14.375 11.25Z" fill="#B7C1D8"/>
<path d="M10 15C10.6904 15 11.25 14.7202 11.25 14.375C11.25 14.0298 10.6904 13.75 10 13.75C9.30964 13.75 8.75 14.0298 8.75 14.375C8.75 14.7202 9.30964 15 10 15Z" fill="#B7C1D8"/>
<path d="M6.25 11.25C6.94036 11.25 7.5 10.6904 7.5 10C7.5 9.30964 6.94036 8.75 6.25 8.75C5.55964 8.75 5 9.30964 5 10C5 10.6904 5.55964 11.25 6.25 11.25Z" fill="#B7C1D8"/>
<path d="M6.25 15C6.94036 15 7.5 14.7202 7.5 14.375C7.5 14.0298 6.94036 13.75 6.25 13.75C5.55964 13.75 5 14.0298 5 14.375C5 14.7202 5.55964 15 6.25 15Z" fill="#B7C1D8"/>
<path d="M6.25 20C6.94036 20 7.5 19.4404 7.5 18.75C7.5 18.0596 6.94036 17.5 6.25 17.5C5.55964 17.5 5 18.0596 5 18.75C5 19.4404 5.55964 20 6.25 20Z" fill="#B7C1D8"/>
<path d="M10 20C10.6904 20 11.25 19.4404 11.25 18.75C11.25 18.0596 10.6904 17.5 10 17.5C9.30964 17.5 8.75 18.0596 8.75 18.75C8.75 19.4404 9.30964 20 10 20Z" fill="#B7C1D8"/>
<path d="M10 11.25C10.6904 11.25 11.25 10.6904 11.25 10C11.25 9.30964 10.6904 8.75 10 8.75C9.30964 8.75 8.75 9.30964 8.75 10C8.75 10.6904 9.30964 11.25 10 11.25Z" fill="#B7C1D8"/>
</svg>
