<svg width="220" height="65" viewBox="0 0 220 65" fill="none" xmlns="http://www.w3.org/2000/svg">
<path d="M211.236 0.828613H8.26357C3.77962 0.828613 0.144653 4.39029 0.144653 8.78384V56.5152C0.144653 60.9088 3.77962 64.4704 8.26357 64.4704H211.236C215.72 64.4704 219.355 60.9088 219.355 56.5152V8.78384C219.355 4.39029 215.72 0.828613 211.236 0.828613Z" fill="#061653"/>
<path d="M108.716 38.7045C107.522 38.7101 106.356 39.0694 105.366 39.7369C104.376 40.4044 103.606 41.3503 103.153 42.4552C102.7 43.5601 102.584 44.7744 102.82 45.945C103.057 47.1155 103.635 48.1898 104.481 49.0322C105.327 49.8746 106.404 50.4474 107.576 50.6783C108.748 50.9092 109.961 50.7879 111.064 50.3296C112.167 49.8713 113.109 49.0967 113.772 48.1034C114.435 47.1101 114.789 45.9427 114.789 44.7485C114.8 43.9492 114.651 43.1557 114.349 42.4153C114.048 41.6749 113.601 41.0027 113.034 40.4388C112.468 39.8749 111.793 39.4307 111.051 39.1328C110.31 38.8348 109.515 38.6892 108.716 38.7045ZM108.716 48.4175C107.982 48.4689 107.249 48.2981 106.613 47.9275C105.977 47.5568 105.467 47.0033 105.15 46.339C104.832 45.6748 104.722 44.9304 104.833 44.2026C104.945 43.4749 105.272 42.7975 105.774 42.2584C106.275 41.7194 106.927 41.3437 107.645 41.1801C108.363 41.0165 109.113 41.0727 109.799 41.3412C110.484 41.6098 111.073 42.0784 111.489 42.686C111.904 43.2937 112.128 44.0123 112.129 44.7485C112.152 45.215 112.081 45.6813 111.921 46.12C111.761 46.5587 111.515 46.9609 111.197 47.3029C110.878 47.6448 110.495 47.9196 110.069 48.1111C109.643 48.3025 109.183 48.4067 108.716 48.4175ZM95.4764 38.7045C94.2816 38.7073 93.1145 39.0642 92.1224 39.73C91.1304 40.3958 90.3579 41.3408 89.9026 42.4454C89.4474 43.55 89.3297 44.7648 89.5645 45.9363C89.7993 47.1078 90.3761 48.1834 91.2219 49.0272C92.0677 49.8711 93.1447 50.4453 94.3167 50.6774C95.4887 50.9094 96.7032 50.7889 97.8068 50.331C98.9104 49.8732 99.8535 49.0985 100.517 48.1049C101.18 47.1112 101.535 45.9433 101.535 44.7485C101.546 43.9492 101.397 43.1557 101.095 42.4153C100.794 41.6749 100.347 41.0027 99.7801 40.4388C99.2135 39.8749 98.5392 39.4307 97.7974 39.1328C97.0556 38.8348 96.2614 38.6892 95.4622 38.7045H95.4764ZM95.4764 48.4175C94.7416 48.4718 94.0075 48.3036 93.3697 47.9348C92.7319 47.566 92.2198 47.0138 91.9003 46.3499C91.5807 45.6861 91.4684 44.9414 91.5779 44.2128C91.6875 43.4843 92.0139 42.8055 92.5146 42.2651C93.0153 41.7246 93.6671 41.3473 94.3851 41.1825C95.1032 41.0176 95.8543 41.0727 96.5406 41.3407C97.2269 41.6086 97.8167 42.077 98.2331 42.6848C98.6495 43.2926 98.8732 44.0117 98.8752 44.7485C98.8981 45.215 98.8274 45.6813 98.6672 46.12C98.507 46.5587 98.2606 46.9609 97.9425 47.3029C97.6244 47.6448 97.2411 47.9196 96.8151 48.1111C96.3891 48.3025 95.9291 48.4067 95.4622 48.4175H95.4764ZM79.7052 40.5675V43.1273H85.8487C85.7524 44.333 85.2512 45.4706 84.4266 46.3555C83.8119 46.9815 83.0731 47.472 82.2574 47.7953C81.4418 48.1186 80.5676 48.2676 79.6909 48.2327C77.8805 48.2327 76.1443 47.5135 74.8641 46.2333C73.584 44.9532 72.8648 43.2169 72.8648 41.4065C72.8648 39.5961 73.584 37.8599 74.8641 36.5797C76.1443 35.2996 77.8805 34.5804 79.6909 34.5804C81.4228 34.5522 83.0951 35.2119 84.3412 36.4149L86.1473 34.6088C85.3061 33.757 84.3025 33.0828 83.1959 32.6259C82.0893 32.1691 80.9023 31.9391 79.7052 31.9495C78.4409 31.9003 77.1797 32.1068 75.9972 32.5567C74.8146 33.0066 73.7351 33.6905 72.8232 34.5676C71.9113 35.4447 71.1859 36.4968 70.6904 37.661C70.1949 38.8251 69.9395 40.0773 69.9395 41.3425C69.9395 42.6078 70.1949 43.86 70.6904 45.0241C71.1859 46.1882 71.9113 47.2404 72.8232 48.1175C73.7351 48.9945 74.8146 49.6785 75.9972 50.1284C77.1797 50.5783 78.4409 50.7848 79.7052 50.7356C80.9224 50.7906 82.1373 50.5842 83.2682 50.1304C84.399 49.6766 85.4195 48.9859 86.2611 48.1047C87.751 46.4677 88.5465 44.3158 88.4796 42.1034C88.4842 41.5644 88.4366 41.0262 88.3374 40.4964L79.7052 40.5675ZM144.141 42.5584C143.77 41.4673 143.077 40.5146 142.152 39.8264C141.228 39.1381 140.116 38.7469 138.965 38.7045C138.187 38.703 137.417 38.861 136.702 39.1689C135.988 39.4767 135.344 39.9278 134.811 40.4943C134.278 41.0608 133.867 41.7306 133.603 42.4623C133.339 43.194 133.227 43.9721 133.276 44.7485C133.259 45.5433 133.402 46.3335 133.697 47.0718C133.992 47.8101 134.432 48.4814 134.993 49.0455C135.553 49.6097 136.221 50.0551 136.957 50.3553C137.693 50.6554 138.482 50.8041 139.277 50.7925C140.272 50.7978 141.253 50.5564 142.131 50.0898C143.01 49.6232 143.759 48.946 144.312 48.1189L142.25 46.6968C141.942 47.2099 141.506 47.6342 140.985 47.9284C140.464 48.2225 139.876 48.3764 139.277 48.3749C138.661 48.3984 138.053 48.236 137.53 47.9088C137.008 47.5816 136.596 47.1048 136.348 46.5404L144.44 43.1984L144.141 42.5584ZM135.893 44.5778C135.864 44.138 135.923 43.6968 136.067 43.2801C136.211 42.8634 136.436 42.4796 136.73 42.1511C137.024 41.8227 137.381 41.5562 137.779 41.3673C138.178 41.1784 138.61 41.0709 139.05 41.051C139.509 41.0208 139.966 41.126 140.366 41.3535C140.765 41.581 141.089 41.9209 141.297 42.3309L135.893 44.5778ZM129.323 50.4369H131.982V32.6605H129.323V50.4369ZM124.971 40.0555H124.871C124.471 39.6074 123.98 39.2491 123.431 39.004C122.882 38.7589 122.287 38.6326 121.686 38.6334C120.132 38.7088 118.666 39.3792 117.593 40.5057C116.52 41.6323 115.921 43.1286 115.921 44.6845C115.921 46.2404 116.52 47.7367 117.593 48.8633C118.666 49.9898 120.132 50.6602 121.686 50.7356C122.289 50.7457 122.886 50.6236 123.436 50.3779C123.987 50.1322 124.477 49.7689 124.871 49.3135H124.957V50.181C124.957 52.499 123.72 53.7362 121.729 53.7362C121.065 53.7207 120.422 53.5082 119.88 53.1258C119.338 52.7434 118.922 52.2084 118.685 51.5889L116.367 52.5559C116.804 53.6173 117.547 54.5241 118.502 55.1601C119.458 55.7961 120.581 56.1322 121.729 56.1254C124.843 56.1254 127.417 54.2909 127.417 49.8254V39.0601H124.971V40.0555ZM121.928 48.4175C121.01 48.3367 120.157 47.9152 119.535 47.236C118.913 46.5569 118.568 45.6694 118.568 44.7485C118.568 43.8276 118.913 42.9401 119.535 42.261C120.157 41.5818 121.01 41.1603 121.928 41.0794C122.382 41.1028 122.828 41.2169 123.238 41.4151C123.648 41.6133 124.014 41.8916 124.315 42.2335C124.616 42.5754 124.845 42.9741 124.99 43.406C125.134 43.8379 125.191 44.2944 125.156 44.7485C125.195 45.2046 125.141 45.6637 124.997 46.0983C124.853 46.5329 124.623 46.9337 124.32 47.2767C124.017 47.6197 123.647 47.8976 123.233 48.0937C122.82 48.2898 122.371 48.4 121.913 48.4175H121.928ZM156.599 32.6605H150.242V50.4369H152.901V43.6961H156.613C157.371 43.7506 158.132 43.6483 158.849 43.3957C159.565 43.1431 160.222 42.7455 160.778 42.2278C161.335 41.7101 161.778 41.0833 162.081 40.3866C162.385 39.6899 162.541 38.9382 162.541 38.1783C162.541 37.4185 162.385 36.6667 162.081 35.97C161.778 35.2733 161.335 34.6466 160.778 34.1289C160.222 33.6112 159.565 33.2136 158.849 32.961C158.132 32.7084 157.371 32.6061 156.613 32.6605H156.599ZM156.599 41.1932H152.887V35.135H156.656C157.465 35.135 158.241 35.4564 158.813 36.0285C159.385 36.6005 159.706 37.3764 159.706 38.1855C159.706 38.9945 159.385 39.7704 158.813 40.3424C158.241 40.9145 157.465 41.2359 156.656 41.2359L156.599 41.1932ZM172.996 38.6334C172.028 38.5755 171.064 38.8018 170.222 39.2843C169.381 39.7669 168.699 40.4847 168.26 41.3497L170.621 42.3309C170.853 41.9019 171.206 41.5499 171.635 41.3176C172.064 41.0853 172.552 40.9828 173.038 41.0226C173.376 40.9831 173.718 41.0113 174.045 41.1055C174.371 41.1997 174.676 41.358 174.94 41.5711C175.205 41.7842 175.425 42.0479 175.587 42.3469C175.748 42.6458 175.849 42.9739 175.883 43.3122V43.497C175.028 43.0448 174.076 42.8103 173.109 42.8144C170.564 42.8144 167.99 44.2365 167.99 46.8106C168.015 47.3594 168.15 47.8976 168.387 48.3934C168.623 48.8892 168.957 49.3326 169.368 49.6972C169.779 50.0618 170.259 50.3402 170.779 50.5162C171.3 50.6921 171.85 50.7619 172.398 50.7214C173.068 50.7695 173.738 50.6364 174.339 50.3361C174.939 50.0358 175.448 49.5794 175.811 49.0148H175.897V50.4369H178.457V43.5966C178.457 40.4822 176.096 38.6761 173.067 38.6761L172.996 38.6334ZM172.669 48.3749C171.801 48.3749 170.592 47.934 170.592 46.8674C170.592 45.4453 172.1 44.976 173.437 44.976C174.281 44.9552 175.116 45.1615 175.854 45.5733C175.765 46.3433 175.401 47.0551 174.829 47.5778C174.256 48.1004 173.515 48.3987 172.74 48.4175L172.669 48.3749ZM187.786 39.0601L184.742 46.7679H184.657L181.5 39.0601H178.656L183.391 49.8397L180.689 55.8267H183.462L190.744 39.0601H187.786ZM163.88 50.4369H166.539V32.6605H163.88V50.4369Z" fill="white"/>
<path d="M22.0269 14.134C21.5634 14.6902 21.3295 15.4022 21.3728 16.1249V47.582C21.3295 48.3048 21.5634 49.0168 22.0269 49.573L22.1265 49.6725L39.7465 32.0668V31.6544L22.1265 14.0344L22.0269 14.134Z" fill="url(#paint0_linear)"/>
<path d="M45.5767 37.9399L39.7461 32.0666V31.6541L45.5767 25.7666L45.7047 25.8377L52.6873 29.8054C54.6783 30.9289 54.6783 32.7776 52.6873 33.9153L45.7332 37.8688L45.5767 37.9399Z" fill="url(#paint1_linear)"/>
<path d="M45.7479 37.8548L39.7466 31.8535L22.0271 49.573C22.4329 49.9298 22.9506 50.1335 23.4907 50.1491C24.0308 50.1647 24.5594 49.9911 24.9851 49.6583L45.7621 37.8548" fill="url(#paint2_linear)"/>
<path d="M45.7477 25.8521L24.9707 14.0486C24.545 13.7159 24.0164 13.5423 23.4763 13.5578C22.9362 13.5734 22.4185 13.7772 22.0127 14.1339L39.7464 31.8534L45.7477 25.8521Z" fill="url(#paint3_linear)"/>
<path opacity="0.2" d="M45.5773 37.7266L24.9709 49.459C24.5603 49.766 24.0614 49.9318 23.5488 49.9318C23.0361 49.9318 22.5372 49.766 22.1266 49.459L22.0271 49.5585L22.1266 49.6581C22.5363 49.9672 23.0355 50.1345 23.5488 50.1345C24.062 50.1345 24.5612 49.9672 24.9709 49.6581L45.7479 37.8546L45.5773 37.7266Z" fill="black"/>
<path opacity="0.12" d="M22.0269 49.3739C21.5634 48.8177 21.3295 48.1057 21.3728 47.383V47.5963C21.3295 48.319 21.5634 49.031 22.0269 49.5872L22.1265 49.4877L22.0269 49.3739ZM52.6877 33.7023L45.5771 37.7268L45.7051 37.8548L52.6877 33.9014C53.0839 33.7152 53.424 33.4279 53.6736 33.0684C53.9233 32.7088 54.0738 32.2898 54.1098 31.8535C54.0298 32.2499 53.86 32.6226 53.6135 32.9431C53.367 33.2636 53.0502 33.5233 52.6877 33.7023Z" fill="black"/>
<path opacity="0.25" d="M24.9708 14.2475L52.6878 30.0045C53.0503 30.1834 53.3671 30.4431 53.6136 30.7636C53.8601 31.0841 54.0299 31.4569 54.1099 31.8532C54.0739 31.417 53.9234 30.9979 53.6737 30.6384C53.4241 30.2788 53.084 29.9915 52.6878 29.8054L24.9708 14.0484C22.9799 12.9249 21.3586 13.8635 21.3586 16.1389V16.3522C21.4013 14.0626 22.9941 13.124 24.9708 14.2475Z" fill="white"/>
<path d="M73.2031 16.9688H74.7656C76.2734 16.9688 77.1719 17.6719 77.1719 18.8516C77.1719 20 76.2188 20.7891 74.8125 20.7891C73.3672 20.7891 72.3672 20.0781 72.2656 18.9688H70.5781C70.6797 20.9531 72.3672 22.2734 74.8203 22.2734C77.1797 22.2734 78.9688 20.8359 78.9688 18.9375C78.9688 17.4062 78.0312 16.3359 76.5234 16.1484V16.0859C77.7734 15.7891 78.625 14.7422 78.625 13.4844C78.625 11.7031 77.0703 10.4531 74.8516 10.4531C72.5078 10.4531 70.9844 11.7031 70.8672 13.7188H72.5234C72.625 12.6016 73.4766 11.9141 74.7969 11.9141C76.0938 11.9141 76.8984 12.5859 76.8984 13.6641C76.8984 14.75 76.0078 15.5078 74.7188 15.5078H73.2031V16.9688ZM83.3359 20.8047C82.4297 20.8047 81.8359 20.3359 81.8359 19.6172C81.8359 18.9141 82.4062 18.4688 83.4141 18.3984L85.4375 18.2734V18.9219C85.4375 19.9922 84.5156 20.8047 83.3359 20.8047ZM82.8672 22.1406C83.9453 22.1406 84.9844 21.5625 85.4609 20.6484H85.5V22H87.1172V16.3359C87.1172 14.6875 85.8438 13.6328 83.8516 13.6328C81.8203 13.6328 80.5547 14.7266 80.4609 16.2109H82.0547C82.2031 15.4766 82.8125 15.0078 83.7891 15.0078C84.8203 15.0078 85.4375 15.5547 85.4375 16.4688V17.1016L83.1875 17.2344C81.2344 17.3438 80.1328 18.2266 80.1328 19.6641C80.1328 21.1406 81.2578 22.1406 82.8672 22.1406ZM94.3359 15.1172V13.7812H88.8906V22H90.5703V15.1172H94.3359ZM100.039 13.6484C98.8516 13.6484 97.9062 14.25 97.4219 15.1953H97.3906V13.7812H95.7578V24.7188H97.4453V20.6484H97.4844C97.9531 21.5625 98.8906 22.1406 100.07 22.1406C102.133 22.1406 103.5 20.4922 103.5 17.8906C103.5 15.2891 102.125 13.6484 100.039 13.6484ZM99.5938 20.7109C98.2969 20.7109 97.4375 19.6016 97.4375 17.8906C97.4375 16.1953 98.3047 15.0703 99.5938 15.0703C100.93 15.0703 101.766 16.1719 101.766 17.8906C101.766 19.6172 100.93 20.7109 99.5938 20.7109ZM105.555 25.0625C107.266 25.0625 108.07 24.4219 108.773 22.4297L111.859 13.7812H110.078L107.992 20.4688H107.969L105.883 13.7812H104.055L107.023 22.0078C107.023 22.0156 106.875 22.5 106.875 22.5156C106.617 23.3594 106.203 23.6875 105.414 23.6875C105.273 23.6875 104.992 23.6875 104.867 23.6562V25.0234C104.992 25.0469 105.422 25.0625 105.555 25.0625ZM115.891 22.1562C117.93 22.1562 119.25 21.125 119.25 19.5625C119.25 18.625 118.695 17.9453 117.648 17.7031V17.6406C118.445 17.4375 118.961 16.7266 118.961 15.8906C118.961 14.5234 117.883 13.6328 115.891 13.6328C114.055 13.6328 112.828 14.5469 112.656 16.0078H114.273C114.383 15.3672 114.992 14.9766 115.898 14.9766C116.859 14.9766 117.312 15.4219 117.312 16.0547C117.312 16.7734 116.82 17.1328 115.875 17.1328H114.695V18.375H115.898C117.016 18.375 117.57 18.75 117.57 19.5703C117.57 20.2969 116.969 20.7969 115.891 20.7969C114.945 20.7969 114.32 20.4062 114.148 19.6953H112.484C112.633 21.2109 113.969 22.1562 115.891 22.1562ZM122.398 22L126.195 16.2266H126.258V22H127.922V13.7812H126.258L122.461 19.5391H122.398V13.7812H120.734V22H122.398ZM135.984 13.7812H129.148V15.1172H131.727V22H133.406V15.1172H135.984V13.7812ZM140.508 14.9922C141.688 14.9922 142.484 15.875 142.523 17.1328H138.414C138.5 15.8906 139.328 14.9922 140.508 14.9922ZM142.516 19.5859C142.289 20.3047 141.578 20.7891 140.617 20.7891C139.266 20.7891 138.406 19.8438 138.406 18.4141V18.3125H144.211V17.7344C144.211 15.2422 142.789 13.6328 140.508 13.6328C138.188 13.6328 136.703 15.3516 136.703 17.9297C136.703 20.5234 138.164 22.1562 140.578 22.1562C142.461 22.1562 143.883 21.0859 144.117 19.5859H142.516ZM152.297 15.0078C153.117 15.0078 153.562 15.3906 153.562 16.0703C153.562 16.7969 153.086 17.1641 152.133 17.1641H150.57V15.0078H152.297ZM152.242 18.3438C153.352 18.3438 153.898 18.75 153.898 19.5625C153.898 20.3516 153.383 20.7734 152.43 20.7734H150.57V18.3438H152.242ZM148.906 22H152.688C154.469 22 155.578 21.0781 155.578 19.6328C155.578 18.6016 154.875 17.8516 153.812 17.7109V17.6484C154.602 17.5 155.211 16.7266 155.211 15.875C155.211 14.5781 154.242 13.7812 152.641 13.7812H148.906V22Z" fill="white"/>
<defs>
<linearGradient id="paint0_linear" x1="38.1821" y1="15.7978" x2="14.3191" y2="39.6609" gradientUnits="userSpaceOnUse">
<stop stop-color="#00A0FF"/>
<stop offset="0.01" stop-color="#00A1FF"/>
<stop offset="0.26" stop-color="#00BEFF"/>
<stop offset="0.51" stop-color="#00D2FF"/>
<stop offset="0.76" stop-color="#00DFFF"/>
<stop offset="1" stop-color="#00E3FF"/>
</linearGradient>
<linearGradient id="paint1_linear" x1="55.2898" y1="31.8532" x2="20.8889" y2="31.8532" gradientUnits="userSpaceOnUse">
<stop stop-color="#FFE000"/>
<stop offset="0.41" stop-color="#FFBD00"/>
<stop offset="0.78" stop-color="#FFA500"/>
<stop offset="1" stop-color="#FF9C00"/>
</linearGradient>
<linearGradient id="paint2_linear" x1="42.4913" y1="35.1244" x2="10.124" y2="67.4774" gradientUnits="userSpaceOnUse">
<stop stop-color="#FF3A44"/>
<stop offset="1" stop-color="#C31162"/>
</linearGradient>
<linearGradient id="paint3_linear" x1="17.5615" y1="3.6672" x2="32.0101" y2="18.1158" gradientUnits="userSpaceOnUse">
<stop stop-color="#32A071"/>
<stop offset="0.07" stop-color="#2DA771"/>
<stop offset="0.48" stop-color="#15CF74"/>
<stop offset="0.8" stop-color="#06E775"/>
<stop offset="1" stop-color="#00F076"/>
</linearGradient>
</defs>
</svg>
