<svg width="22" height="21" viewBox="0 0 22 21" fill="none" xmlns="http://www.w3.org/2000/svg">
<path d="M3.19545 0H18.8048C20.2871 0 21.5 1.0975 21.5 2.69524V18.305C21.5 19.9027 20.2871 21.0002 18.8048 21.0002H3.19545C1.71264 21.0002 0.5 19.9027 0.5 18.305V2.69524C0.5 1.0975 1.71264 0 3.19545 0ZM15.7977 2.33321C15.2777 2.33321 14.8527 2.75841 14.8527 3.2787V5.54163C14.8527 6.0617 15.2777 6.48711 15.7977 6.48711H18.1713C18.6913 6.48711 19.1168 6.0617 19.1168 5.54163V3.2787C19.1168 2.75841 18.6913 2.33321 18.1713 2.33321H15.7977ZM19.1267 8.88092H17.2784C17.4533 9.45188 17.5479 10.0567 17.5479 10.6824C17.5479 14.1754 14.625 17.007 11.0201 17.007C7.41533 17.007 4.49283 14.1754 4.49283 10.6824C4.49283 10.0563 4.58727 9.45166 4.76236 8.88092H2.83364V17.7517C2.83364 18.2108 3.20925 18.5866 3.66852 18.5866H18.2922C18.7515 18.5866 19.1271 18.211 19.1271 17.7517L19.1267 8.88092ZM11.0198 6.36788C8.69072 6.36788 6.80233 8.1974 6.80233 10.4545C6.80233 12.7116 8.69072 14.5411 11.0198 14.5411C13.3492 14.5411 15.2378 12.7116 15.2378 10.4545C15.2378 8.1974 13.3494 6.36788 11.0198 6.36788Z" fill="#A1AFCC"/>
</svg>
