<svg width="229" height="178" viewBox="0 0 229 178" fill="none" xmlns="http://www.w3.org/2000/svg">
<path d="M15.578 21.662C15.578 22.2499 15.1077 22.6908 14.5492 22.6908C13.9614 22.6908 13.5205 22.2205 13.5205 21.662C13.5205 21.0742 13.9908 20.6333 14.5492 20.6333C15.1077 20.6333 15.578 21.1036 15.578 21.662Z" fill="#3069B3"/>
<path d="M13.1388 5.90791C13.1388 6.96604 12.2864 7.84781 11.1989 7.84781C10.1408 7.84781 9.25903 6.99543 9.25903 5.90791C9.25903 4.8204 10.1114 3.96802 11.1989 3.96802C12.2571 3.99741 13.1388 4.84979 13.1388 5.90791Z" fill="#FDC10F"/>
<path d="M3.58587 40.2673C5.56629 40.2673 7.17173 38.6619 7.17173 36.6814C7.17173 34.701 5.56629 33.0956 3.58587 33.0956C1.60545 33.0956 0 34.701 0 36.6814C0 38.6619 1.60545 40.2673 3.58587 40.2673Z" fill="#F3BE18"/>
<path d="M192.314 160.6L190.462 161.834C190.462 161.805 190.462 161.805 190.433 161.805L186.641 164.362C185.995 164.803 185.084 164.568 184.584 163.862C184.114 163.157 184.231 162.216 184.878 161.775L191.55 157.278L191.873 156.896C193.078 156.103 193.313 154.339 192.432 153.017C191.55 151.694 189.845 151.253 188.64 152.076L186.553 153.164C185.848 153.634 184.878 153.369 184.349 152.605C183.82 151.841 183.967 150.812 184.672 150.342L186.142 149.343C186.112 149.313 186.612 148.902 186.612 148.902C187.259 148.461 187.406 147.52 186.906 146.815C186.406 146.109 185.495 145.874 184.848 146.315L184.349 146.668L181.41 148.666C180.645 149.196 178.676 149.343 177.912 148.284C177.059 147.138 177.794 145.316 179.293 144.287C179.323 144.258 179.381 144.228 179.411 144.199C172.562 149.166 164.568 152.693 155.897 154.251C156.015 154.486 156.073 154.751 156.073 155.015C156.132 156.044 155.427 156.867 154.516 156.985L148.461 157.278C148.431 157.278 148.402 157.308 148.373 157.308C147.726 157.396 147.226 157.984 147.256 158.719C147.285 159.483 147.873 160.071 148.578 160.041L151.224 159.924L151.664 159.894C152.252 159.865 152.723 160.365 152.752 161.011C152.781 161.658 152.341 162.187 151.753 162.216L151.282 162.305L149.96 162.363C149.342 162.393 148.872 162.981 148.902 163.657C148.931 164.333 149.46 164.891 150.077 164.862L151.811 164.979C152.87 164.92 153.781 165.861 153.84 167.037C153.898 168.212 153.075 169.241 151.988 169.271L151.635 169.388L145.668 169.653C145.081 169.682 144.64 170.211 144.669 170.858C144.699 171.504 145.198 172.004 145.757 171.975L149.137 171.828V171.857L150.783 171.769C151.371 171.739 151.841 172.239 151.87 172.886C151.9 173.415 151.547 173.826 151.106 173.973C151.106 173.973 147.344 174.238 147.285 174.267C147.138 174.326 146.991 174.444 146.991 174.62C146.991 174.855 147.197 175.061 147.403 175.031L148.813 175.12C149.519 175.09 150.136 175.707 150.165 176.472C150.195 177.265 149.666 177.912 148.96 177.941H148.696L147.902 177.971C148.079 177.971 148.226 178 148.402 178C156.191 177.765 163.657 176.501 170.77 174.208C172.974 173.503 175.149 172.709 177.295 171.798C183.555 169.153 189.287 165.861 194.519 161.952C194.519 161.658 194.46 161.393 194.283 161.099C193.901 160.394 192.961 160.159 192.314 160.6Z" fill="#D2232A"/>
<path d="M106.224 26.7472C106.518 27.5114 107.282 27.9229 108.987 26.9529C113.014 24.6603 114.395 24.8661 114.395 24.8661C114.63 24.8073 114.865 24.8661 114.983 25.1012C115.071 25.3363 114.983 25.6009 114.748 25.7184C114.748 25.7184 112.602 26.7472 112.661 26.806C112.25 27.1587 112.044 27.6583 112.25 28.1874C112.514 28.7752 113.161 29.0104 113.749 28.834C113.807 28.834 113.837 28.8634 113.895 28.834L115.365 28.1874C115.953 28.011 116.6 28.2462 116.864 28.834C117.129 29.4513 116.835 30.1861 116.217 30.4506C116.217 30.4506 113.778 31.5675 113.749 31.5675C111.544 32.5081 109.751 33.3605 104.402 36.6818C102.432 37.8869 102.286 39.2095 102.962 40.1207C103.755 41.2082 104.99 41.5021 106.547 40.5616C109.487 38.7686 111.515 37.0933 117.187 35.0946C117.863 34.8595 118.598 35.124 118.892 35.8C119.186 36.476 118.863 37.2696 118.187 37.5636L118.216 37.5929L117.746 37.7987C117.129 38.0632 116.835 38.798 117.099 39.4447C117.364 40.0619 118.099 40.3558 118.716 40.0913L120.097 39.5035L120.156 39.5622C120.891 39.2389 121.773 39.5916 122.096 40.3264C122.39 41.0025 122.125 41.8842 121.449 42.1488C115.835 44.1768 113.543 45.6171 113.484 45.6465C112.573 46.1461 112.103 47.2336 112.543 48.2036C112.72 48.6445 113.073 48.9972 113.484 49.2029C122.36 43.2951 132.971 39.7974 144.405 39.5916C144.434 39.3859 144.464 39.1801 144.552 38.9744C144.993 37.7987 146.198 37.1227 147.315 37.299C147.373 37.299 150.342 37.5342 156.338 39.5622C157.073 39.7974 157.955 39.1801 158.278 38.3571C158.601 37.4754 158.19 36.5348 157.337 36.3291V36.2409L155.78 35.8294C155.074 35.6531 154.721 34.8889 154.986 34.1246C155.251 33.3604 156.074 32.9196 156.779 33.0959L157.308 33.2429V33.2135C158.072 33.4192 158.925 32.9196 159.248 32.0966C159.542 31.303 159.16 30.5388 158.454 30.3036C152.399 28.2168 149.49 28.3637 145.757 27.9523C143.788 27.7465 143.053 26.6002 143.258 25.1012C143.435 23.8079 144.581 22.7498 147.079 22.9849C153.928 23.6316 155.985 24.1019 158.484 24.7485C158.513 24.7485 161.305 25.4245 161.305 25.4245C162.011 25.6009 162.804 25.1306 163.098 24.3958C163.363 23.6904 163.04 23.0143 162.422 22.7792L160.747 22.3383C160.688 22.3383 160.688 22.2795 160.629 22.2501C160.012 22.015 159.689 21.339 159.953 20.6336C160.188 20.0163 160.747 19.693 161.335 19.6636C161.335 19.6048 163.833 20.1045 163.833 20.1045C164.098 20.1633 164.392 19.9869 164.509 19.7224C164.597 19.4579 164.48 19.2227 164.245 19.1346C164.245 19.1346 163.304 17.9883 158.337 17.3122C157.455 17.1947 156.926 16.9595 156.573 16.695C152.929 16.1953 149.225 15.9308 145.463 15.9308C131.266 15.9308 117.952 19.5754 106.342 25.9242C106.165 26.1593 106.107 26.4532 106.224 26.7472Z" fill="#3069B3"/>
<path d="M79.3593 126.417C81.7401 123.948 82.7688 120.509 83.9739 117.305C85.2378 113.925 86.7662 110.633 88.5591 107.488C88.03 104.578 87.7361 101.609 87.6773 98.5526C84.6499 97.5238 81.2698 97.0242 78.1542 96.2306C73.5102 95.0255 69.1307 92.8798 65.3097 89.9994C65.104 92.439 64.957 94.8785 64.957 97.3769C64.957 108.693 67.0733 119.245 71.3352 129.003C71.5997 129.62 71.8936 130.208 72.1876 130.825C72.746 130.59 73.3339 130.326 73.8629 130.061C75.8322 129.091 77.8309 128.004 79.3593 126.417Z" fill="#9ACA3C"/>
<path d="M113.249 147.05C112.69 147.843 111.632 148.02 110.809 147.549C110.75 147.52 108.517 146.462 104.255 143.082C103.726 142.67 102.932 142.905 102.521 143.464C102.109 144.081 102.256 144.933 102.873 145.345L102.844 145.404L103.99 146.197C104.49 146.55 104.637 147.255 104.284 147.784C103.931 148.284 103.226 148.431 102.697 148.078L102.315 147.814V147.843C101.756 147.461 100.992 147.608 100.61 148.137C100.228 148.666 100.375 149.372 100.875 149.783C105.166 153.222 107.458 153.986 110.251 155.397C111.75 156.161 112.102 157.249 111.632 158.395C111.25 159.365 110.163 159.865 108.281 158.924C103.108 156.367 101.609 155.397 99.787 154.133L97.7296 152.752C97.2299 152.399 96.4951 152.517 96.1424 153.046C95.8191 153.516 95.9366 154.133 96.3481 154.515L97.5532 155.368C97.5826 155.397 97.5826 155.456 97.612 155.485C98.0235 155.867 98.1704 156.485 97.8177 156.955C97.5238 157.366 97.0241 157.455 96.5539 157.308C96.5539 157.366 94.7021 156.22 94.7021 156.22C94.4964 156.073 94.2319 156.132 94.1143 156.338C93.9967 156.514 94.0555 156.749 94.2025 156.896C94.2025 156.896 94.7315 158.101 98.435 160.1C100.022 160.952 100.081 161.716 99.6107 162.334C99.4049 162.628 99.0522 162.686 98.6113 162.657C101.08 164.391 103.637 166.037 106.342 167.507C108.223 168.535 110.133 169.447 112.102 170.328C114.424 171.21 121.273 173.179 121.743 173.326C122.125 173.444 122.537 173.562 122.919 173.65C123.007 173.679 123.125 173.679 123.242 173.709C123.36 173.738 123.477 173.738 123.595 173.767C124.447 173.914 125.799 174.091 126.74 173.914C127.298 173.797 127.739 173.591 127.827 173.15C128.004 172.415 127.622 171.71 125.829 171.592C121.626 171.269 120.656 170.387 120.656 170.387C120.45 170.328 120.303 170.123 120.332 169.917C120.362 169.682 120.597 169.535 120.832 169.564C120.832 169.564 122.978 169.858 122.978 169.799C123.448 169.741 123.889 169.447 123.977 168.976C124.094 168.418 123.712 167.889 123.183 167.712C123.154 167.712 123.125 167.654 123.066 167.654L121.626 167.389C121.096 167.213 120.714 166.713 120.832 166.125C120.95 165.508 121.537 165.097 122.155 165.214C122.155 165.214 124.565 165.626 124.594 165.626C126.74 166.037 128.533 166.331 134.294 166.537C136.41 166.625 137.174 165.714 137.145 164.685C137.086 163.451 136.322 162.598 134.646 162.51C131.501 162.363 129.121 162.598 123.801 161.187C123.183 161.011 122.742 160.423 122.889 159.777C123.007 159.13 123.654 158.689 124.33 158.807V158.777L124.771 158.865C125.388 158.983 125.976 158.571 126.093 157.954C126.211 157.337 125.799 156.749 125.182 156.632L123.83 156.367V156.308C123.095 156.161 122.625 155.456 122.742 154.721C122.86 154.045 123.507 153.516 124.153 153.692C129.444 155.044 131.913 155.103 131.972 155.103C132.795 155.191 133.588 154.75 133.882 154.016C126.446 152.517 119.509 149.577 113.396 145.521C113.631 146.021 113.572 146.579 113.249 147.05Z" fill="#F47920"/>
<path d="M113.484 145.492C106.136 140.613 99.9929 134.088 95.5252 126.475C92.1451 120.714 89.7643 114.307 88.5298 107.488C86.7663 110.633 85.2085 113.895 83.9446 117.305C82.7395 120.509 81.7108 123.948 79.33 126.417C77.8016 128.033 75.803 129.091 73.8043 130.091C73.2458 130.355 72.6874 130.62 72.1289 130.855C72.8931 132.53 73.7161 134.176 74.5979 135.763C74.5391 135.793 74.4803 135.793 74.4215 135.822C74.7154 136.41 75.0387 136.998 75.3621 137.586C77.4783 141.201 79.8591 144.669 82.5338 147.902C84.797 150.665 87.2954 153.222 89.9113 155.633C92.1451 157.661 94.4671 159.601 96.936 161.393C97.5239 161.805 98.1117 162.216 98.6702 162.657C99.0817 162.716 99.4344 162.628 99.6695 162.334C100.14 161.717 100.081 160.953 98.4938 160.1C94.7904 158.102 94.2613 156.896 94.2613 156.896C94.085 156.749 94.0262 156.514 94.1732 156.338C94.3201 156.132 94.5847 156.103 94.761 156.22C94.761 156.22 96.6127 157.367 96.6127 157.308C97.083 157.455 97.5827 157.367 97.8766 156.955C98.1999 156.485 98.0823 155.868 97.6709 155.486C97.6415 155.456 97.6415 155.397 97.6121 155.368L96.407 154.516C95.9955 154.134 95.8485 153.516 96.2012 153.046C96.5539 152.546 97.2594 152.399 97.7884 152.752C97.7884 152.752 99.8459 154.104 99.8459 154.134C101.639 155.397 103.167 156.367 108.34 158.925C110.221 159.865 111.309 159.336 111.691 158.395C112.132 157.249 111.809 156.162 110.31 155.397C107.517 153.957 105.225 153.222 100.933 149.784C100.434 149.372 100.287 148.667 100.669 148.138C101.051 147.579 101.815 147.462 102.374 147.844V147.814L102.756 148.079C103.255 148.431 103.99 148.314 104.343 147.785C104.696 147.285 104.578 146.55 104.049 146.198L102.903 145.404L102.932 145.345C102.315 144.934 102.168 144.081 102.579 143.464C102.961 142.906 103.784 142.671 104.314 143.082C108.605 146.462 110.839 147.52 110.868 147.55C111.691 148.02 112.749 147.844 113.308 147.05C113.572 146.58 113.631 146.021 113.484 145.492Z" fill="url(#paint0_linear)"/>
<path d="M87.6771 98.5529C87.6771 98.1414 87.6478 97.7299 87.6478 97.3185C87.6478 86.3551 90.7046 76.0972 95.9952 67.3676C95.7013 67.2795 95.4073 67.1325 95.1428 66.9268C94.3492 66.2507 94.2316 65.1338 94.8195 64.399L98.8756 59.7844C98.905 59.755 98.8756 59.7256 98.905 59.6962C99.2871 59.1672 99.199 58.403 98.6699 57.9033C98.082 57.4036 97.2297 57.4036 96.7888 57.9327L95.0252 59.9314L94.7313 60.2841C94.3492 60.725 93.6438 60.725 93.1441 60.3135C92.6445 59.8726 92.5857 59.1672 92.9678 58.7263C92.9678 58.7263 93.2323 58.3442 93.2323 58.3148L94.1141 57.3155C94.5256 56.8452 94.4374 56.081 93.9083 55.6107C93.3793 55.1404 92.6151 55.1698 92.2036 55.6401L90.9103 56.8452C90.2049 57.6682 88.8822 57.6682 87.9711 56.8746C87.0599 56.081 86.9129 54.7583 87.6184 53.9647L87.7653 53.6414L91.7333 49.115C92.1154 48.6741 92.0272 47.9687 91.5569 47.5278C91.0573 47.0869 90.3519 47.1163 89.9698 47.5572L87.7065 50.1437C87.7065 50.1437 87.7065 50.1143 87.6771 50.1143L86.5602 51.3782C86.1781 51.8191 85.4727 51.8191 84.9731 51.4076C84.5616 51.0549 84.5028 50.4964 84.7085 50.0849C84.7085 50.0849 87.1481 47.1457 87.1775 47.1163C87.2363 46.9693 87.2657 46.793 87.1187 46.6754C86.9423 46.5285 86.6778 46.5285 86.5308 46.6754L85.4727 47.6454C85.0024 48.1744 84.1207 48.2038 83.5328 47.6748C83.1507 47.3221 83.0038 46.8518 83.0332 46.4109C78.3304 52.26 74.3918 58.7557 71.3056 65.9274C69.9536 69.0724 68.8367 72.3056 67.8961 75.5975C66.5734 80.2709 65.7505 85.1206 65.3096 90.0585C69.1306 92.939 73.51 95.0846 78.154 96.2897C81.2696 97.0245 84.6497 97.5242 87.6771 98.5529Z" fill="#FDC10F"/>
<path d="M203.689 154.045C199.251 154.428 187.083 140.29 189.287 135.029C186.348 138.438 183.056 141.495 179.411 144.111C179.382 144.14 179.323 144.17 179.294 144.199C177.795 145.228 177.089 147.079 177.912 148.196C178.706 149.254 180.646 149.108 181.41 148.578L184.349 146.58L184.849 146.227C185.496 145.786 186.407 146.021 186.906 146.727C187.406 147.432 187.259 148.373 186.612 148.814C186.612 148.814 186.113 149.225 186.142 149.254L184.673 150.254C183.967 150.724 183.82 151.723 184.349 152.517C184.878 153.281 185.848 153.546 186.554 153.075L188.64 151.988C189.846 151.194 191.55 151.606 192.432 152.929C193.314 154.251 193.079 155.985 191.874 156.808L191.55 157.19L184.878 161.687C184.232 162.128 184.085 163.069 184.584 163.774C185.055 164.48 185.995 164.715 186.642 164.274L190.433 161.717C190.433 161.717 190.433 161.746 190.463 161.746L192.315 160.512C192.961 160.071 193.872 160.306 194.372 161.011C194.548 161.276 194.607 161.57 194.607 161.864C197.635 159.63 200.486 157.161 203.16 154.516C203.366 154.428 203.513 154.222 203.689 154.045Z" fill="#EE2873"/>
<path d="M211.155 54.1994C211.331 54.0525 211.361 53.8173 211.243 53.6116C211.243 53.6116 211.214 53.2001 210.626 52.2595C210.42 52.2889 210.214 52.3477 210.038 52.4653C209.832 52.6122 209.685 52.7886 209.597 52.9943C210.038 53.494 210.567 54.1112 210.567 54.1112C210.685 54.317 210.949 54.3464 211.155 54.1994Z" fill="url(#paint1_linear)"/>
<path d="M198.751 64.2516C199.368 63.7813 199.486 62.8996 199.016 62.2823L199.045 62.2235L198.163 61.0772C198.134 61.0479 198.134 61.0185 198.134 60.9891C197.752 60.9303 197.34 61.0185 197.017 61.2242C196.282 61.7239 196.106 62.6938 196.576 63.4286L197.135 64.2516C197.575 64.6337 198.281 64.6337 198.751 64.2516Z" fill="url(#paint2_linear)"/>
<path d="M214.535 55.1695C214.27 55.3458 213.888 55.2871 213.712 55.0225C213.712 55.0225 211.89 52.583 211.86 52.6418C211.507 52.3478 211.067 52.2009 210.626 52.2597C211.184 53.2002 211.243 53.6117 211.243 53.6117C211.36 53.8174 211.36 54.0526 211.155 54.1995C210.949 54.3465 210.684 54.3171 210.537 54.1114C210.537 54.1114 210.008 53.4647 209.568 52.9945C209.332 53.4647 209.303 54.0232 209.568 54.5229C209.597 54.5816 209.568 54.6404 209.597 54.6992L210.743 56.404C211.067 57.0506 210.949 57.8148 210.42 58.3145C210.155 58.4027 209.92 58.5202 209.685 58.6966C209.068 58.8141 208.451 58.579 208.069 58.0206C208.069 58.0206 207.745 57.5797 207.363 57.0212C207.01 57.0212 206.687 56.8743 206.452 56.5803C206.452 56.5803 204.865 54.5817 204.865 54.5523C203.483 52.7299 202.308 51.2897 198.016 47.0866C196.429 45.5582 195.195 45.7052 194.519 46.5575C193.696 47.5569 193.696 48.7326 194.93 49.9671C197.252 52.289 199.28 53.7587 202.425 58.5496C202.749 59.0493 202.69 59.6665 202.337 60.1074C202.396 60.1956 202.455 60.2838 202.484 60.3719C202.925 61.1655 202.778 62.1649 202.014 62.6645C201.22 63.1936 200.162 62.9879 199.633 62.1943L199.604 62.2237L199.251 61.6946C198.986 61.3125 198.604 61.0774 198.163 61.0186C198.193 61.048 198.193 61.0774 198.193 61.1067L199.074 62.2531L199.045 62.3118C199.515 62.9291 199.398 63.8108 198.781 64.2811C198.31 64.6632 197.605 64.6632 197.164 64.2811L197.693 65.0747L197.634 65.1629C197.958 65.6332 198.016 66.1916 197.899 66.6913H220.942C220.825 66.4268 220.737 66.1328 220.619 65.8389C220.59 65.7507 220.531 65.6626 220.501 65.6038C219.296 62.8409 218.209 60.4895 217.033 58.3145C216.298 56.9624 215.534 55.6692 214.711 54.3759C214.711 54.4053 214.711 54.4347 214.711 54.4347C214.829 54.6698 214.799 54.9931 214.535 55.1695Z" fill="url(#paint3_linear)"/>
<path d="M220.913 66.6909C220.795 66.4264 220.707 66.1325 220.59 65.8386C220.56 65.7504 220.501 65.6622 220.472 65.6034C219.267 62.8406 218.179 60.4892 217.004 58.3141C216.269 56.9621 215.505 55.6688 214.682 54.3756C214.447 53.9935 214.182 53.6114 213.947 53.2293C209.509 46.3514 204.042 40.179 197.811 34.9178C194.577 32.2137 191.168 29.7448 187.553 27.5697C178.294 21.9852 167.801 18.1936 156.602 16.6652C156.926 16.9591 157.484 17.1648 158.366 17.2824C163.333 17.9584 164.274 19.1047 164.274 19.1047C164.509 19.1929 164.656 19.428 164.538 19.6926C164.421 19.9865 164.127 20.1629 163.862 20.0747C163.862 20.0747 161.364 19.5456 161.364 19.6338C160.776 19.6632 160.188 19.9865 159.983 20.6037C159.718 21.3092 160.041 21.9852 160.659 22.2203C160.717 22.2497 160.717 22.3085 160.776 22.3085L162.452 22.7494C163.069 22.9845 163.392 23.6605 163.128 24.366C162.863 25.1302 162.04 25.571 161.335 25.3947L158.513 24.7187C156.015 24.072 153.957 23.6018 147.109 22.9551C144.61 22.72 143.464 23.7781 143.288 25.0714C143.082 26.5998 143.787 27.7167 145.786 27.9224C149.519 28.3339 152.429 28.187 158.484 30.2738C159.189 30.509 159.571 31.2732 159.277 32.0668C158.983 32.8897 158.101 33.3894 157.337 33.1837V33.2131L156.808 33.0661C156.103 32.8897 155.309 33.36 155.015 34.0948C154.751 34.859 155.103 35.6232 155.809 35.7996L157.367 36.2111V36.2993C158.219 36.505 158.631 37.4456 158.307 38.3273C158.013 39.1503 157.102 39.7676 156.367 39.5324C150.342 37.5043 147.403 37.2692 147.344 37.2692C146.227 37.0928 145.022 37.7689 144.581 38.9446C144.493 39.1503 144.463 39.3561 144.434 39.5618C144.787 39.5618 145.139 39.5324 145.492 39.5324C150.959 39.5324 156.22 40.2966 161.217 41.7074C169.153 43.9413 176.413 47.8211 182.556 52.9941C184.231 54.4049 185.818 55.8746 187.317 57.4618C187.729 57.9026 188.14 58.3141 188.523 58.755C189.551 59.9013 190.521 61.077 191.462 62.2821C192.549 63.6929 193.578 65.1625 194.519 66.6909C194.783 67.1024 195.018 67.5139 195.283 67.9254C195.812 68.8072 196.312 69.7184 196.782 70.6001C197.252 70.9528 197.458 71.7464 197.546 71.9816C197.575 72.011 197.575 72.0991 197.605 72.1579C198.81 74.6269 199.809 77.184 200.662 79.8293C201.455 79.506 201.984 78.7418 201.867 78.007L201.396 74.9796L201.308 74.4799C201.191 73.8333 201.72 73.0985 202.455 72.8927C203.189 72.687 203.895 73.0397 203.983 73.6863C203.983 73.6863 204.13 74.2154 204.159 74.2154L204.394 75.7438C204.512 76.4492 205.247 76.8313 206.04 76.6256C206.834 76.3904 207.392 75.6262 207.275 74.9208L207.187 72.8633C206.981 71.6289 207.951 70.3062 209.332 69.9241C210.714 69.5126 211.978 70.1886 212.183 71.4231L212.36 71.8052L213.447 78.6242C213.565 79.2709 214.241 79.653 214.976 79.4178C215.71 79.2121 216.24 78.4773 216.122 77.8307L215.505 73.9509H215.534L215.24 72.0404C215.123 71.3937 215.652 70.6589 216.387 70.4532C217.004 70.2768 217.533 70.5707 217.768 71.041C217.768 71.041 218.415 74.3036 218.591 75.3911C218.679 76.0377 219.149 76.7137 220.031 76.6256C221.589 76.4786 221.295 74.5387 221.295 74.5387C221.295 74.5387 220.884 71.1586 221.824 70.9822C222.147 70.9235 222.441 71.041 222.676 71.2468C222.089 69.6596 221.53 68.1606 220.913 66.6909Z" fill="url(#paint4_linear)"/>
<path d="M193.46 129.591C192.961 130.355 192.432 131.119 191.844 131.883C191.021 132.971 190.169 134.029 189.287 135.058C187.082 140.29 199.251 154.457 203.689 154.075C208.598 149.107 212.801 143.581 216.328 137.468C218.003 134.411 219.502 131.295 220.766 128.092H194.43C194.137 128.591 193.813 129.091 193.46 129.591Z" fill="#EE2873"/>
<path d="M193.46 129.591C192.961 130.355 192.432 131.119 191.844 131.883C191.021 132.971 190.169 134.029 189.287 135.058C187.082 140.29 199.251 154.457 203.689 154.075C208.598 149.107 212.801 143.581 216.328 137.468C218.003 134.411 219.502 131.295 220.766 128.092H194.43C194.137 128.591 193.813 129.091 193.46 129.591Z" fill="url(#paint5_linear)"/>
<path d="M220.354 125.976C219.59 125.741 219.179 125.006 219.384 124.36L219.678 122.978C219.737 122.772 219.62 122.537 219.384 122.478C219.208 122.42 219.091 122.537 218.973 122.655C218.944 122.684 217.709 126.27 217.709 126.27C217.445 126.652 216.974 126.917 216.445 126.74C215.828 126.564 215.475 125.947 215.652 125.418L216.151 123.83H216.122L217.151 120.597C217.298 120.098 217.033 119.598 216.533 119.363C216.475 119.333 216.416 119.304 216.357 119.275C215.74 119.098 215.093 119.392 214.917 119.951L213.624 124.066L213.124 125.623L212.918 125.917C212.595 126.946 211.39 127.505 210.273 127.152C209.127 126.829 208.48 125.712 208.803 124.683L209.156 122.978C209.332 122.39 208.95 121.744 208.304 121.538C207.657 121.332 206.952 121.655 206.775 122.243L206.364 123.507C206.334 123.507 206.158 123.948 206.158 123.948C205.982 124.507 205.335 124.8 204.718 124.624C204.1 124.448 203.748 123.83 203.924 123.301L204.071 122.861L204.865 120.362C205.07 119.716 204.63 118.981 203.924 118.775C203.219 118.569 202.513 118.893 202.278 119.51C202.278 119.539 202.219 119.539 202.219 119.569L200.397 125.359C200.074 126.211 199.074 126.682 198.104 126.388C197.105 126.094 196.488 125.094 196.782 124.183C196.076 125.506 195.342 126.799 194.548 128.034C194.225 128.533 193.901 129.062 193.578 129.533C193.078 130.297 192.549 131.061 191.961 131.825C191.138 132.913 190.286 133.971 189.404 135C186.465 138.409 183.173 141.466 179.528 144.082C179.499 144.111 179.44 144.141 179.411 144.17C177.912 145.199 177.206 147.05 178.029 148.167C178.823 149.225 180.763 149.079 181.527 148.549L184.466 146.551L184.966 146.227C185.613 145.787 186.524 146.022 187.024 146.727C187.494 147.433 187.376 148.373 186.73 148.814C186.73 148.814 186.23 149.225 186.259 149.255L184.79 150.254C184.084 150.724 183.937 151.724 184.466 152.517C184.995 153.282 185.965 153.546 186.671 153.076L188.758 151.988C189.963 151.195 191.667 151.606 192.549 152.929C193.431 154.252 193.196 155.986 191.991 156.809L191.667 157.191L184.995 161.688C184.349 162.129 184.231 163.069 184.702 163.775C185.172 164.48 186.112 164.715 186.759 164.274L190.551 161.717C190.551 161.717 190.551 161.747 190.58 161.747L192.432 160.512C193.078 160.071 193.99 160.306 194.489 161.012C194.666 161.276 194.724 161.57 194.724 161.864C197.752 159.63 200.603 157.161 203.277 154.516C203.454 154.34 203.63 154.134 203.807 153.958C208.715 148.99 212.948 143.465 216.445 137.351C218.121 134.294 219.62 131.179 220.884 127.975C221.177 127.211 221.501 126.417 221.765 125.653C221.324 126.006 220.825 126.123 220.354 125.976Z" fill="url(#paint6_linear)"/>
<path d="M71.6585 13.932C71.6585 14.5199 71.1883 14.9607 70.6298 14.9607C70.042 14.9607 69.6011 14.4905 69.6011 13.932C69.6011 13.3442 70.0714 12.9033 70.6298 12.9033C71.1883 12.8739 71.6585 13.3442 71.6585 13.932Z" fill="#3069B3"/>
<path d="M25.6593 104.49C25.6593 105.959 24.4836 107.135 23.014 107.135C21.5443 107.135 20.3687 105.959 20.3687 104.49C20.3687 103.02 21.5443 101.844 23.014 101.844C24.4836 101.844 25.6593 103.02 25.6593 104.49Z" fill="#3069B3"/>
<path d="M193.696 16.3422C194.913 16.3422 195.9 15.3552 195.9 14.1378C195.9 12.9203 194.913 11.9333 193.696 11.9333C192.478 11.9333 191.491 12.9203 191.491 14.1378C191.491 15.3552 192.478 16.3422 193.696 16.3422Z" fill="#FDC10F"/>
<path d="M73.54 41.4725C75.147 41.4725 76.4498 40.1697 76.4498 38.5627C76.4498 36.9556 75.147 35.6528 73.54 35.6528C71.9329 35.6528 70.6301 36.9556 70.6301 38.5627C70.6301 40.1697 71.9329 41.4725 73.54 41.4725Z" fill="#9ACA3C"/>
<path d="M30.7441 12.9912C32.3511 12.9912 33.6539 11.6884 33.6539 10.0814C33.6539 8.47429 32.3511 7.17151 30.7441 7.17151C29.137 7.17151 27.8342 8.47429 27.8342 10.0814C27.8342 11.6884 29.137 12.9912 30.7441 12.9912Z" fill="#9ACA3C"/>
<path d="M83.8566 20.3984C83.8566 21.6623 82.8279 22.7204 81.5346 22.7204C80.2708 22.7204 79.2126 21.6917 79.2126 20.3984C79.2126 19.1345 80.2414 18.0764 81.5346 18.0764C82.8279 18.1058 83.8566 19.1345 83.8566 20.3984Z" fill="#3069B3"/>
<path d="M218.797 15.8427C218.797 16.9009 217.944 17.7826 216.857 17.7826C215.799 17.7826 214.917 16.9302 214.917 15.8427C214.917 14.7846 215.769 13.9028 216.857 13.9028C217.915 13.9322 218.797 14.7846 218.797 15.8427Z" fill="#FDC10F"/>
<path d="M158.954 44.0592C158.954 45.47 157.808 46.5869 156.426 46.5869C155.016 46.5869 153.899 45.4406 153.899 44.0592C153.899 42.6483 155.045 41.5314 156.426 41.5314C157.808 41.502 158.954 42.6483 158.954 44.0592Z" fill="#9ACA3C"/>
<path d="M150.107 2.38078C150.107 3.70344 149.049 4.76156 147.726 4.76156C146.403 4.76156 145.345 3.70344 145.345 2.38078C145.345 1.05812 146.403 0 147.726 0C149.019 0 150.107 1.05812 150.107 2.38078Z" fill="#D2232A"/>
<path d="M181.41 5.34937C181.41 5.99601 180.881 6.55446 180.205 6.55446C179.558 6.55446 179 6.0254 179 5.34937C179 4.67335 179.529 4.14429 180.205 4.14429C180.881 4.17368 181.41 4.70274 181.41 5.34937Z" fill="#3069B3"/>
<path d="M141.642 8.90577C141.642 9.5524 141.113 10.1109 140.437 10.1109C139.761 10.1109 139.231 9.58179 139.231 8.90577C139.231 8.22975 139.761 7.70068 140.437 7.70068C141.113 7.70068 141.642 8.22975 141.642 8.90577Z" fill="#3069B3"/>
<path d="M30.7443 153.311V169.741C30.7443 170.828 31.6261 171.71 32.7136 171.71C33.8011 171.71 34.6829 170.828 34.6829 169.741V169.506V169.182V157.014C34.6829 156.25 35.3295 155.603 36.0937 155.603C36.8579 155.603 37.5046 156.25 37.5046 157.014V163.216C37.5046 163.862 38.0336 164.392 38.6803 164.392C39.3269 164.392 39.856 163.862 39.856 163.216V158.748C39.856 158.043 40.4438 157.484 41.1198 157.484C41.8252 157.484 42.3837 158.072 42.3837 158.748V167.772V171.945V174.885C42.3837 176.09 43.383 177.089 44.5881 177.089C45.7932 177.089 46.7926 176.09 46.7926 174.885V171.563V159.953V156.456V153.193C46.7926 152.546 47.3216 152.017 47.9682 152.017C48.6149 152.017 49.1439 152.546 49.1439 153.193V156.485V159.953V163.245C49.1439 163.892 49.673 164.421 50.3196 164.421C50.9663 164.421 51.4953 163.892 51.4953 163.245V162.158V156.485V156.074C51.4953 155.838 51.7011 155.633 51.9362 155.633C52.1714 155.633 52.3771 155.838 52.3771 156.074V162.158V167.713C52.3771 167.86 52.4947 167.977 52.5535 168.124C52.7298 168.712 53.2001 169.182 53.8467 169.182C54.6403 169.182 55.2869 168.536 55.2869 167.742V159.865V155.162V123.918C49.673 122.831 44.4412 120.009 39.4739 117.07C36.711 115.453 33.7717 113.807 30.6855 113.19L30.7443 153.311Z" fill="#D2232A"/>
<path d="M38.6801 165.685C38.0335 165.685 37.5044 166.214 37.5044 166.861V168.595C37.5044 169.241 38.0335 169.77 38.6801 169.77C39.3267 169.77 39.8558 169.241 39.8558 168.595V167.772V166.831C39.8558 166.214 39.3267 165.685 38.6801 165.685Z" fill="#9ACA3C"/>
<path d="M53.8763 169.888C53.0827 169.888 52.436 170.534 52.436 171.328V172.651C52.436 173.444 53.0827 174.091 53.8763 174.091C54.6699 174.091 55.3165 173.444 55.3165 172.651V171.357C55.3459 170.564 54.6992 169.888 53.8763 169.888Z" fill="#F47920"/>
<path d="M38.68 95.7014C39.3267 95.7014 39.8557 95.1723 39.8557 94.5257V93.5851V92.7621C39.8557 92.1155 39.3267 91.5864 38.68 91.5864C38.0334 91.5864 37.5043 92.1155 37.5043 92.7621V94.4963C37.4749 95.1723 38.004 95.7014 38.68 95.7014Z" fill="#D2232A"/>
<path d="M53.876 92.2039C53.0824 92.2039 52.4357 92.8505 52.4357 93.6441V99.1993V105.283C52.4357 105.519 52.23 105.724 51.9949 105.724C51.7597 105.724 51.554 105.519 51.554 105.283V104.872V99.1993V98.1117C51.554 97.4651 51.0249 96.936 50.3783 96.936C49.7317 96.936 49.2026 97.4651 49.2026 98.1117V101.404V104.872V108.164C49.2026 108.811 48.6735 109.34 48.0269 109.34C47.3803 109.34 46.8512 108.811 46.8512 108.164V104.901V101.404V86.4724C46.8512 85.2673 45.8519 84.2679 44.6468 84.2679C43.4417 84.2679 42.4423 85.2673 42.4423 86.4724V93.5853V102.609C42.4423 103.314 41.8545 103.873 41.1785 103.873C40.4731 103.873 39.9146 103.285 39.9146 102.609V98.1411C39.9146 97.4945 39.3855 96.9654 38.7389 96.9654C38.0923 96.9654 37.5632 97.4945 37.5632 98.1411V104.343C37.5632 105.107 36.9166 105.754 36.1524 105.754C35.3882 105.754 34.7416 105.107 34.7416 104.343V91.8512V91.616C34.7416 90.5285 33.8598 89.6467 32.7723 89.6467C31.6847 89.6467 30.803 90.5285 30.803 91.616V108.046V119.127C33.8892 119.745 36.8284 121.39 39.5913 123.007C44.5586 125.917 49.7904 128.768 55.4044 129.855V106.253V93.6735C55.3456 92.8505 54.699 92.2039 53.876 92.2039Z" fill="#F47920"/>
<path d="M53.8763 87.2366C53.0827 87.2366 52.436 87.8832 52.436 88.6768V89.9995C52.436 90.7931 53.0827 91.4397 53.8763 91.4397C54.6699 91.4397 55.3165 90.7931 55.3165 89.9995V88.6768C55.3459 87.8832 54.6992 87.2366 53.8763 87.2366Z" fill="#9ACA3C"/>
<path d="M47.4101 66.9264C46.7634 66.9264 46.2344 67.4555 46.2344 68.1021V69.0426V69.8656C46.2344 70.5123 46.7634 71.0413 47.4101 71.0413C48.0567 71.0413 48.5858 70.5123 48.5858 69.8656V68.1315C48.5858 67.4555 48.0567 66.9264 47.4101 66.9264Z" fill="#D2232A"/>
<path d="M32.1846 71.1589C31.391 71.1589 30.7444 71.8056 30.7444 72.5992V73.9218C30.7444 74.7154 31.391 75.362 32.1846 75.362C32.9782 75.362 33.6248 74.7154 33.6248 73.9218V72.5992C33.6542 71.8056 32.9782 71.1589 32.1846 71.1589Z" fill="#F47920"/>
<path d="M21.0743 68.778C20.1925 65.2215 18.7229 61.7239 18.9875 58.0792C19.1638 55.7572 20.075 53.5528 21.2213 51.5541C22.6615 49.0851 24.6308 46.4692 24.0429 43.6476C23.6902 41.9134 22.4264 40.6495 21.0743 39.4445L10.1991 58.6083C9.05284 60.46 8.49438 62.5175 8.49438 64.8101C8.49438 68.102 9.61129 70.8355 11.8157 73.0399C14.0201 75.2443 16.783 76.3612 20.0456 76.3612C20.4571 76.3612 20.8392 76.3025 21.2213 76.2437C21.8973 73.9217 21.6915 71.2176 21.0743 68.778Z" fill="#FDC10F"/>
<path d="M48.2915 35.7999C46.4398 36.4759 45.9107 38.7685 44.6763 40.2675C43.5593 41.649 41.737 42.4426 39.9441 42.2662C38.1805 42.1192 36.5052 41.0023 35.6528 39.4445C33.5953 35.6529 36.5052 30.7738 35.1531 26.6883C34.4771 24.6602 32.8899 23.1318 31.5379 21.4564C30.9794 22.25 30.3916 23.0436 29.8919 23.9548L21.1036 39.4445C22.4556 40.6496 23.6901 41.9135 24.0722 43.6476C24.6601 46.4693 22.6908 49.0852 21.2505 51.5542C20.0749 53.5529 19.1931 55.7573 19.0167 58.0793C18.7228 61.7239 20.1924 65.251 21.1036 68.7781C21.7208 71.2177 21.9266 73.8924 21.2505 76.2438C23.1904 75.9792 24.8952 75.1269 26.3648 73.5691C28.1577 71.7173 29.598 69.5717 30.7443 67.1615V68.9251C30.7443 69.7187 31.3909 70.3653 32.1845 70.3653C32.9781 70.3653 33.6247 69.7187 33.6247 68.9251V63.3699V57.3151C33.6247 57.08 33.8305 56.8742 34.0656 56.8742C34.3007 56.8742 34.5065 57.08 34.5065 57.3151V57.7266V63.3993V64.4868C34.5065 65.1335 35.0356 65.6625 35.6822 65.6625C36.3288 65.6625 36.8579 65.1335 36.8579 64.4868V61.1949V57.7266V54.4346C36.8579 53.788 37.3869 53.2589 38.0336 53.2589C38.6802 53.2589 39.2093 53.788 39.2093 54.4346V57.6972V61.1949V76.1262C39.2093 77.3313 40.2086 78.3306 41.4137 78.3306C42.6188 78.3306 43.6181 77.3313 43.6181 76.1262V69.0132V59.9898C43.6181 59.2844 44.206 58.7259 44.882 58.7259C45.558 58.7259 46.1459 59.3138 46.1459 59.9898V64.4574C46.1459 65.1041 46.6749 65.6331 47.3216 65.6331C47.9682 65.6331 48.4973 65.1041 48.4973 64.4574V58.2556C48.4973 57.4914 49.1439 56.8448 49.9081 56.8448C50.6723 56.8448 51.3189 57.4914 51.3189 58.2556V70.7474V70.9825C51.3189 72.0701 52.2007 72.9518 53.2882 72.9518C54.3757 72.9518 55.2575 72.0701 55.2575 70.9825V54.5522V37.3871C54.6109 37.2695 53.9348 37.2401 53.2882 36.9756C51.7304 36.329 49.9669 35.212 48.2915 35.7999Z" fill="#3069B3"/>
<path d="M52.5539 17.8704C50.7021 15.3721 47.5572 14.1376 43.1483 14.1376C40.2973 14.1376 37.7695 15.0781 35.5651 16.9298C34.0661 18.1937 32.7434 19.7809 31.5383 21.5151C32.8904 23.1904 34.507 24.7188 35.1536 26.7469C36.5056 30.8618 33.5958 35.7116 35.6533 39.5032C36.5056 41.061 38.181 42.1779 39.9445 42.3248C41.7081 42.4718 43.5598 41.7076 44.6767 40.3262C45.9112 38.7978 46.4403 36.5052 48.292 35.8585C49.9673 35.2413 51.7309 36.3876 53.3768 37.0342C53.9941 37.2694 54.6701 37.3281 55.3461 37.4457V27.1878C55.3461 23.4843 54.4056 20.3688 52.5539 17.8704Z" fill="#9ACA3C"/>
<path d="M37.5046 67.3085H36.7698V87.7362H37.5046V67.3085Z" fill="#FDC10F"/>
<path d="M50.173 73.2751H49.4382V93.7028H50.173V73.2751Z" fill="#9ACA3C"/>
<path d="M45.8229 72.4229H45.0293V82.622H45.8229V72.4229Z" fill="#5C89C7"/>
<path d="M32.9782 77.5372H32.1846V87.7364H32.9782V77.5372Z" fill="#D2232A"/>
<path d="M43.0309 80.6528C43.0309 81.2112 42.59 81.6521 42.0316 81.6521C41.4731 81.6521 41.0322 81.2112 41.0322 80.6528C41.0322 80.0943 41.4731 79.6534 42.0316 79.6534C42.59 79.6828 43.0309 80.1237 43.0309 80.6528Z" fill="#9ACA3C"/>
<path d="M37.6221 124.888C36.8285 124.888 36.1819 125.535 36.1819 126.328V127.269V130.355V133.353C36.1819 133.588 35.9761 133.794 35.741 133.794C35.5059 133.794 35.3001 133.588 35.3001 133.353V130.355V127.68C35.3001 127.034 34.771 126.505 34.1244 126.505C33.4778 126.505 32.9487 127.034 32.9487 127.68V129.561V130.355C32.9487 131.002 32.4197 131.531 31.773 131.531C31.1264 131.531 30.5973 131.002 30.5973 130.355V129.561V127.651C30.5973 126.446 29.598 125.447 28.3929 125.447C27.1878 125.447 26.1885 126.446 26.1885 127.651V129.944V138.967V146.08C26.1885 147.285 27.1878 148.284 28.3929 148.284C29.598 148.284 30.5973 147.285 30.5973 146.08V142.259V136.322V135.528C30.5973 134.881 31.1264 134.352 31.773 134.352C32.4197 134.352 32.9487 134.881 32.9487 135.528V136.322V140.672C32.9487 141.318 33.4778 141.847 34.1244 141.847C34.771 141.847 35.3001 141.318 35.3001 140.672V136.41V135.822C35.3001 135.587 35.5059 135.381 35.741 135.381C35.9761 135.381 36.1819 135.587 36.1819 135.822V136.41V138.879C36.1819 139.672 36.8285 140.319 37.6221 140.319C38.4157 140.319 39.0623 139.672 39.0623 138.879V126.299C39.0623 125.535 38.4157 124.888 37.6221 124.888Z" fill="#3069B3"/>
<path d="M39.2386 141.172C38.445 141.172 37.7983 141.818 37.7983 142.612V143.934C37.7983 144.728 38.445 145.375 39.2386 145.375C40.0322 145.375 40.6788 144.728 40.6788 143.934V142.612C40.7082 141.818 40.0322 141.172 39.2386 141.172Z" fill="#FDC10F"/>
<path d="M54.4052 80.6528C54.4052 81.2112 53.9643 81.6521 53.4058 81.6521C52.8474 81.6521 52.4065 81.2112 52.4065 80.6528C52.4065 80.0943 52.8474 79.6534 53.4058 79.6534C53.9643 79.6828 54.4052 80.1237 54.4052 80.6528Z" fill="#5976BA"/>
<path d="M39.8561 89.353C39.8561 89.9114 39.4152 90.3523 38.8568 90.3523C38.2983 90.3523 37.8574 89.9114 37.8574 89.353C37.8574 88.7945 38.2983 88.3536 38.8568 88.3536C39.4152 88.3536 39.8561 88.7945 39.8561 89.353Z" fill="#FDC10F"/>
<path d="M42.2079 138.732C41.5613 138.732 41.0322 139.261 41.0322 139.908V140.848V141.671C41.0322 142.318 41.5613 142.847 42.2079 142.847C42.8546 142.847 43.3836 142.318 43.3836 141.671V139.908C43.413 139.261 42.8839 138.732 42.2079 138.732Z" fill="#F47920"/>
<path d="M42.2076 111.073C41.414 111.073 40.7673 111.72 40.7673 112.514V113.836C40.7673 114.63 41.414 115.277 42.2076 115.277C43.0012 115.277 43.6478 114.63 43.6478 113.836V112.514C43.6772 111.72 43.0305 111.073 42.2076 111.073Z" fill="#D2232A"/>
<path d="M197.869 66.6913C197.869 68.3961 196.487 69.7775 194.783 69.7775C193.078 69.7775 191.697 68.3961 191.697 66.6913C191.697 64.9865 193.078 63.6051 194.783 63.6051C196.487 63.6051 197.869 64.9865 197.869 66.6913Z" fill="#F47920"/>
<path d="M186.435 141.994C188.497 141.994 190.168 140.323 190.168 138.262C190.168 136.2 188.497 134.529 186.435 134.529C184.374 134.529 182.702 136.2 182.702 138.262C182.702 140.323 184.374 141.994 186.435 141.994Z" fill="#F3BE18"/>
<path d="M93.7325 36.1231C94.2322 36.7403 95.1433 36.8579 95.7606 36.3582L96.7893 35.5353C97.4065 35.0356 97.5241 34.1244 97.0244 33.5072C96.6423 33.0075 95.9957 32.9487 95.4372 33.1545C94.8788 33.5366 94.3791 33.9187 93.8207 34.3302C93.3798 34.8004 93.2916 35.5646 93.7325 36.1231Z" fill="#EE2873"/>
<path d="M94.1438 54.0527C94.6729 54.4642 95.4077 54.3466 95.8192 53.8469L96.8773 52.4655C97.2888 51.9658 97.1712 51.2016 96.6716 50.7901C96.1425 50.3786 95.4077 50.4962 94.9962 50.9959L93.9087 52.3773C93.5266 52.9064 93.6148 53.6412 94.1438 54.0527Z" fill="#3069B3"/>
<path d="M101.453 47.5295L101.844 48.1514L106.67 45.1144L106.279 44.4926L101.453 47.5295Z" fill="#9ACA3C"/>
<path d="M98.4178 37.5714L98.8096 38.2615L104.203 35.1997L103.811 34.5095L98.4178 37.5714Z" fill="#5976BA"/>
<path d="M93.1358 46.7052L93.5439 47.1682L98.6155 42.6983L98.2074 42.2353L93.1358 46.7052Z" fill="#EE2873"/>
<path d="M111.133 29.7451C111.632 29.51 112.22 29.7157 112.455 30.2154C112.69 30.7151 112.485 31.3029 111.985 31.5381C111.485 31.7732 110.897 31.5674 110.662 31.0678C110.427 30.5975 110.633 29.9803 111.133 29.7451Z" fill="#9ACA3C"/>
<path d="M224.792 93.9965V89.0879C224.381 88.9998 224.087 88.9704 223.587 88.9704C221.412 88.9704 219.061 90.44 218.061 93.3792H217.885L217.709 89.4407H213.27C213.388 91.2924 213.447 93.2911 213.447 96.0833V110.074H218.561V99.4047C218.561 98.8168 218.649 98.2584 218.737 97.7881C219.208 95.4661 220.854 93.8495 223.323 93.8495C223.91 93.8495 224.381 93.9377 224.792 93.9965ZM210.39 101.198C210.478 100.727 210.566 99.9631 210.566 98.9932C210.566 94.4667 208.391 88.941 201.837 88.941C195.341 88.941 191.932 94.3198 191.932 100.051C191.932 106.371 195.811 110.456 202.366 110.456C205.276 110.456 207.686 109.898 209.449 109.192L208.715 105.606C207.186 106.194 205.481 106.547 203.101 106.547C199.868 106.547 196.987 104.93 196.869 101.198H210.39ZM205.746 97.5529H196.84C197.046 95.4367 198.369 92.5268 201.543 92.5268C204.952 92.5268 205.775 95.6718 205.746 97.5529ZM185.994 93.3204H190.873V89.4113H185.994V83.5328L180.998 84.7673V89.4407H178.088V93.3498H180.998V103.049C180.998 105.753 181.497 107.635 182.585 108.81C183.555 109.868 185.113 110.515 186.994 110.515C188.61 110.515 189.933 110.309 190.697 110.015L190.609 106.047C190.139 106.165 189.492 106.312 188.61 106.312C186.641 106.312 185.994 104.989 185.994 102.491V93.3204ZM171.004 110.074H176.119V97.8469C176.119 91.3218 172.444 88.9998 168.917 88.9998C165.537 88.9998 163.333 90.9397 162.48 92.5562H162.363L162.128 89.47H157.631C157.748 91.263 157.807 93.2323 157.807 95.613V110.103H162.951V97.9938C162.951 97.406 162.98 96.7594 163.156 96.2891C163.686 94.7313 165.126 93.2323 167.154 93.2323C169.946 93.2323 171.034 95.4661 171.034 98.4347V110.074H171.004ZM154.75 101.198C154.838 100.727 154.927 99.9631 154.927 98.9932C154.927 94.4667 152.752 88.941 146.197 88.941C139.701 88.941 136.292 94.3198 136.292 100.051C136.292 106.371 140.172 110.456 146.726 110.456C149.636 110.456 152.046 109.898 153.81 109.192L153.075 105.606C151.546 106.194 149.842 106.547 147.461 106.547C144.228 106.547 141.347 104.93 141.23 101.198H154.75ZM150.106 97.5529H141.2C141.406 95.4367 142.729 92.5268 145.903 92.5268C149.313 92.5268 150.136 95.6718 150.106 97.5529ZM133.294 87.442L134.381 83.474C133.382 82.9449 131.06 82.2689 127.827 82.2689C119.597 82.2689 113.483 87.7065 113.483 96.73C113.483 105.048 118.656 110.486 127.21 110.486C130.443 110.486 133 109.868 134.146 109.28L133.353 105.342C132.089 105.959 130.002 106.371 128.003 106.371C122.095 106.371 118.627 102.52 118.627 96.4948C118.627 89.9109 122.566 86.4132 128.033 86.4132C130.266 86.4132 132.001 86.8835 133.294 87.442Z" fill="black"/>
<path d="M103.373 110.486H108.839V90.0874L103.373 91.7628V110.486ZM108.781 85.3553C108.751 83.7681 107.723 82.563 106.047 82.563C104.431 82.563 103.314 83.7681 103.314 85.3553C103.314 86.9131 104.372 88.1181 106.018 88.1181C107.723 88.1181 108.781 86.8837 108.781 85.3553Z" fill="#D2232A"/>
<path d="M86.9426 42.9127C87.4422 42.6776 88.0301 42.8833 88.2652 43.383C88.5004 43.8827 88.2946 44.4705 87.7949 44.7057C87.2953 44.9408 86.7074 44.735 86.4723 44.2354C86.2372 43.7651 86.4429 43.1479 86.9426 42.9127Z" fill="#F6882A"/>
<path d="M101.11 54.8464C101.609 54.6113 102.197 54.817 102.432 55.3167C102.668 55.8164 102.462 56.4042 101.962 56.6394C101.462 56.8745 100.875 56.6688 100.639 56.1691C100.434 55.6694 100.639 55.0816 101.11 54.8464Z" fill="#F5BF17"/>
<path d="M184.907 36.358C185.26 35.6526 184.966 34.7709 184.26 34.4181L183.408 34.0067L180.645 32.6546L177.97 31.3319C177.765 31.2144 177.647 30.9498 177.765 30.7441C177.882 30.5384 178.147 30.4208 178.353 30.5384L181.027 31.861L183.408 33.0367C183.996 33.3306 184.701 33.0955 184.995 32.5076C185.289 31.9198 185.054 31.2144 184.466 30.9205L182.761 30.0681L182.056 29.7154C181.468 29.4214 181.233 28.716 181.527 28.1282C181.821 27.5403 182.526 27.3052 183.114 27.5991L183.82 27.9518L185.524 28.8042C186.612 29.3333 187.934 28.8924 188.464 27.8049C188.993 26.7173 188.552 25.3947 187.464 24.8656L185.407 23.8369L177.324 19.8395L170.946 16.6946C169.858 16.1655 168.536 16.6064 168.006 17.6939C167.477 18.7814 167.918 20.1041 169.006 20.6331L172.445 22.3379L177.765 24.9832L178.47 25.3359C179.058 25.6298 179.293 26.3352 178.999 26.9231C178.705 27.5109 178 27.7461 177.412 27.4522L176.707 27.0994L172.827 25.1302C172.239 24.8362 171.534 25.0714 171.24 25.6592C170.946 26.2471 171.181 26.9525 171.769 27.2464L175.59 29.1275L176.119 29.3921C176.324 29.5096 176.442 29.7742 176.324 29.9799C176.207 30.1856 175.942 30.3032 175.737 30.1856L175.208 29.9211L173.003 28.8336C172.298 28.4809 171.416 28.7748 171.063 29.4802C170.711 30.1856 171.004 31.0674 171.71 31.4201L182.997 37.0047C183.673 37.3868 184.554 37.0928 184.907 36.358Z" fill="#D2232A"/>
<path d="M169.594 30.5974C169.947 29.8919 169.653 29.0102 168.947 28.6575L167.771 28.0696C167.066 27.7169 166.184 28.0108 165.832 28.7163C165.479 29.4217 165.773 30.3034 166.478 30.6561L167.654 31.244C168.359 31.6261 169.241 31.3322 169.594 30.5974Z" fill="#F47920"/>
<path d="M99.6403 123.683C98.8468 124.565 98.9055 125.946 99.7873 126.74L100.845 127.71L104.255 130.825L107.576 133.853C107.841 134.088 107.87 134.529 107.635 134.793C107.4 135.058 106.959 135.087 106.695 134.852L103.373 131.825L100.434 129.15C99.6991 128.503 98.5822 128.533 97.9356 129.268C97.289 130.002 97.3477 131.119 98.0532 131.766L100.14 133.676L101.022 134.47C101.757 135.117 101.786 136.263 101.139 136.968C100.493 137.703 99.3464 137.733 98.641 137.086L97.7592 136.292L95.643 134.352C94.2909 133.147 92.2041 133.235 90.999 134.588C89.7939 135.94 89.8821 138.026 91.2341 139.232L93.7913 141.554L103.785 150.636L111.632 157.778C112.984 158.983 115.071 158.895 116.276 157.543C117.482 156.191 117.393 154.104 116.041 152.899L111.809 149.049L105.225 143.053L104.343 142.259C103.608 141.612 103.579 140.466 104.226 139.761C104.872 139.026 106.018 138.996 106.724 139.643L107.606 140.437L112.426 144.816C113.161 145.463 114.278 145.404 114.924 144.699C115.571 143.964 115.512 142.847 114.807 142.2L110.104 137.909L109.457 137.321C109.193 137.086 109.163 136.645 109.399 136.38C109.634 136.116 110.075 136.087 110.339 136.322L110.986 136.91L113.719 139.408C114.601 140.201 115.982 140.143 116.776 139.261C117.57 138.379 117.511 136.998 116.629 136.204L102.697 123.536C101.845 122.713 100.463 122.801 99.6403 123.683Z" fill="#F1BE1A"/>
<path d="M118.627 141.26C117.834 142.141 117.893 143.523 118.774 144.316L120.244 145.639C121.126 146.433 122.507 146.374 123.301 145.492C124.094 144.61 124.036 143.229 123.154 142.435L121.684 141.113C120.802 140.29 119.421 140.348 118.627 141.26Z" fill="#F1BE1A"/>
<path d="M183.232 169.006C182.908 168.506 182.232 168.33 181.703 168.653L181.086 169.035L179.117 170.27L177.206 171.475C177.059 171.563 176.824 171.534 176.736 171.357C176.648 171.211 176.677 170.975 176.854 170.887L178.764 169.682L180.469 168.624C180.88 168.359 181.027 167.801 180.763 167.39C180.498 166.978 179.94 166.831 179.528 167.096L178.323 167.86L177.794 168.183C177.383 168.448 176.824 168.33 176.56 167.889C176.295 167.478 176.413 166.919 176.854 166.655L177.383 166.331L178.617 165.567C179.381 165.068 179.616 164.039 179.146 163.275C178.646 162.51 177.618 162.275 176.854 162.746L175.384 163.657L169.594 167.301L165.038 170.152C164.274 170.652 164.038 171.681 164.509 172.445C165.008 173.209 166.037 173.444 166.801 172.974L169.27 171.446L173.091 169.065L173.62 168.742C174.032 168.477 174.59 168.595 174.855 169.035C175.119 169.476 175.002 170.005 174.561 170.27L174.032 170.593L171.24 172.357C170.828 172.621 170.681 173.18 170.946 173.591C171.21 174.003 171.769 174.15 172.18 173.885L174.914 172.18L175.296 171.945C175.443 171.857 175.678 171.887 175.766 172.063C175.854 172.21 175.825 172.445 175.648 172.533L175.266 172.768L173.679 173.768C173.179 174.091 173.003 174.767 173.326 175.296C173.65 175.796 174.326 175.972 174.855 175.649L182.938 170.593C183.408 170.211 183.555 169.506 183.232 169.006Z" fill="#FDC10F"/>
<path d="M195.577 40.1792C194.989 40.7377 194.96 41.6488 195.518 42.2367L196.429 43.2066C196.988 43.7945 197.899 43.8239 198.487 43.2654C198.957 42.8245 198.957 42.2073 198.722 41.6488C198.281 41.1492 197.869 40.6495 197.429 40.1498C196.841 39.7383 196.077 39.7089 195.577 40.1792Z" fill="#FDC10F"/>
<path d="M185.054 44.6177C184.555 45.0292 184.467 45.764 184.878 46.2931L185.966 47.6451C186.377 48.1448 187.112 48.233 187.641 47.8215C188.141 47.41 188.229 46.6752 187.817 46.1461L186.73 44.7941C186.318 44.2944 185.554 44.2062 185.054 44.6177Z" fill="#FDC10F"/>
<path d="M188.429 52.1093L187.9 52.6188L191.854 56.7272L192.383 56.2176L188.429 52.1093Z" fill="#9ACA3C"/>
<path d="M199.849 45.4632L199.222 45.9496L203.023 50.8502L203.65 50.3638L199.849 45.4632Z" fill="#5976BA"/>
<path d="M192.427 41.8905L192.02 42.3538L197.094 46.8203L197.502 46.3569L192.427 41.8905Z" fill="#D2232A"/>
<path d="M211.732 136.024C212.434 135.446 212.533 134.409 211.955 133.707C211.377 133.006 210.34 132.906 209.638 133.484C208.937 134.062 208.837 135.1 209.415 135.801C209.993 136.503 211.031 136.602 211.732 136.024Z" fill="white"/>
<path d="M209.462 142.57C209.9 142.209 209.962 141.56 209.601 141.122C209.24 140.683 208.591 140.621 208.153 140.982C207.715 141.344 207.652 141.992 208.014 142.431C208.375 142.869 209.023 142.931 209.462 142.57Z" fill="white"/>
<path d="M132.867 29.1417C134.157 28.0781 134.341 26.1701 133.278 24.88C132.214 23.5899 130.306 23.4062 129.016 24.4698C127.726 25.5333 127.542 27.4413 128.606 28.7315C129.669 30.0216 131.577 30.2052 132.867 29.1417Z" fill="white"/>
<path d="M49.3434 26.1103C50.6335 25.0467 50.8172 23.1387 49.7536 21.8486C48.6901 20.5585 46.7821 20.3748 45.492 21.4384C44.2018 22.502 44.0182 24.41 45.0817 25.7001C46.1453 26.9902 48.0533 27.1739 49.3434 26.1103Z" fill="white"/>
<path d="M50.2765 121.172C51.5666 120.109 51.7503 118.201 50.6868 116.911C49.6232 115.621 47.7152 115.437 46.4251 116.5C45.135 117.564 44.9513 119.472 46.0148 120.762C47.0784 122.052 48.9864 122.236 50.2765 121.172Z" fill="white"/>
<path d="M27.9897 62.3836C29.2798 61.3201 29.4634 59.412 28.3999 58.1219C27.3363 56.8318 25.4283 56.6482 24.1382 57.7117C22.8481 58.7753 22.6644 60.6833 23.728 61.9734C24.7915 63.2635 26.6996 63.4472 27.9897 62.3836Z" fill="white"/>
<path d="M213.572 64.7608C214.389 64.1199 214.5 62.896 213.819 62.0272C213.138 61.1583 211.923 60.9735 211.106 61.6144C210.288 62.2553 210.177 63.4792 210.858 64.3481C211.539 65.2169 212.754 65.4017 213.572 64.7608Z" fill="white"/>
<path d="M138.46 32.9473C139.187 32.3484 139.29 31.2739 138.691 30.5475C138.093 29.821 137.018 29.7176 136.292 30.3165C135.565 30.9154 135.462 31.9898 136.061 32.7163C136.66 33.4427 137.734 33.5462 138.46 32.9473Z" fill="white"/>
<path d="M43.1133 32.9496C43.8398 32.3507 43.9432 31.2763 43.3443 30.5498C42.7454 29.8233 41.671 29.7199 40.9445 30.3188C40.2181 30.9177 40.1146 31.9921 40.7135 32.7186C41.3124 33.4451 42.3869 33.5485 43.1133 32.9496Z" fill="white"/>
<path d="M50.5147 52.5151C51.2412 51.9162 51.3446 50.8418 50.7457 50.1153C50.1468 49.3889 49.0724 49.2855 48.3459 49.8844C47.6194 50.4832 47.516 51.5577 48.1149 52.2841C48.7138 53.0106 49.7882 53.114 50.5147 52.5151Z" fill="white"/>
<path d="M202.973 142.113C204.012 141.256 204.16 139.719 203.303 138.679C202.446 137.639 200.909 137.491 199.869 138.348C198.829 139.206 198.681 140.743 199.538 141.783C200.395 142.822 201.933 142.97 202.973 142.113Z" fill="white"/>
<path d="M185.867 158.728C186.506 158.202 186.597 157.257 186.07 156.618C185.544 155.979 184.599 155.888 183.96 156.415C183.321 156.942 183.23 157.886 183.757 158.525C184.284 159.164 185.228 159.255 185.867 158.728Z" fill="white"/>
<path d="M91.0717 151.852C91.7105 151.326 91.8015 150.381 91.2749 149.742C90.7482 149.103 89.8035 149.012 89.1647 149.539C88.5259 150.066 88.435 151.01 88.9616 151.649C89.4882 152.288 90.4329 152.379 91.0717 151.852Z" fill="white"/>
<path d="M90.1947 127.544C91.1716 126.739 91.3107 125.294 90.5053 124.317C89.6999 123.34 88.255 123.201 87.278 124.006C86.301 124.812 86.1619 126.256 86.9674 127.233C87.7728 128.21 89.2177 128.35 90.1947 127.544Z" fill="white"/>
<path d="M177.875 152.797C178.163 152.56 178.204 152.134 177.967 151.846C177.729 151.557 177.303 151.516 177.015 151.754C176.727 151.991 176.686 152.417 176.923 152.706C177.161 152.994 177.587 153.035 177.875 152.797Z" fill="white"/>
<path d="M200.473 153.466C200.762 153.228 200.803 152.802 200.565 152.514C200.328 152.226 199.901 152.185 199.613 152.422C199.325 152.66 199.284 153.086 199.522 153.374C199.759 153.662 200.185 153.703 200.473 153.466Z" fill="white"/>
<path d="M206.313 67.8699C206.964 67.333 207.057 66.3697 206.52 65.7184C205.983 65.0671 205.02 64.9744 204.369 65.5113C203.717 66.0483 203.624 67.0115 204.161 67.6628C204.698 68.3142 205.662 68.4069 206.313 67.8699Z" fill="white"/>
<path d="M205.229 58.9622C205.592 58.6627 205.644 58.1255 205.344 57.7623C205.045 57.399 204.508 57.3473 204.144 57.6468C203.781 57.9462 203.729 58.4834 204.029 58.8467C204.328 59.2099 204.865 59.2616 205.229 58.9622Z" fill="white"/>
<path d="M202.209 134.629C202.572 134.329 202.624 133.792 202.324 133.429C202.025 133.065 201.487 133.014 201.124 133.313C200.761 133.613 200.709 134.15 201.009 134.513C201.308 134.876 201.845 134.928 202.209 134.629Z" fill="white"/>
<path d="M189.875 36.9463C190.198 37.3872 190.139 38.0044 189.698 38.3278C189.258 38.6511 188.64 38.5923 188.317 38.1514C187.994 37.7105 188.052 37.0933 188.493 36.77C188.934 36.4467 189.551 36.5348 189.875 36.9463Z" fill="#F47920"/>
<path d="M181.204 53.3178C181.527 53.7587 181.469 54.3759 181.028 54.6992C180.587 55.0225 179.97 54.9638 179.646 54.5229C179.323 54.082 179.382 53.4647 179.823 53.1414C180.234 52.8181 180.881 52.9063 181.204 53.3178Z" fill="#F5BF17"/>
<path d="M137.38 161.599C137.38 162.304 137.938 162.892 138.644 162.892L139.819 162.922C140.525 162.922 141.113 162.363 141.113 161.658C141.113 160.952 140.554 160.365 139.849 160.365L138.673 160.335C137.997 160.335 137.409 160.894 137.38 161.599Z" fill="#9ACA3C"/>
<path d="M145.845 162.216C146.315 162.187 146.727 162.569 146.756 163.069C146.785 163.539 146.403 163.95 145.904 163.98C145.433 164.009 145.022 163.627 144.993 163.127C144.963 162.657 145.345 162.246 145.845 162.216Z" fill="#FDC10F"/>
<path d="M141.995 170.27C137.175 170.417 132.443 169.682 127.887 168.095L128.092 167.536C132.56 169.094 137.233 169.829 141.995 169.682V170.27Z" fill="#FDC10F"/>
<path d="M138.556 158.953C135.058 159.541 131.472 159.277 127.857 158.13L127.887 157.572C131.443 158.689 134.97 158.953 138.409 158.366L138.556 158.953Z" fill="#EE2873"/>
<path d="M144.875 154.398C142.171 154.868 139.437 154.839 136.763 154.31L136.821 153.986C139.467 154.516 142.171 154.545 144.816 154.075L144.875 154.398Z" fill="#FDC10F"/>
<path d="M87.971 90.4401C87.1187 90.5577 86.5014 91.3219 86.619 92.1743L86.7366 93.203L87.1481 96.495L87.5302 99.6987C87.5596 99.9633 87.3832 100.198 87.1187 100.228C86.8541 100.257 86.619 100.081 86.5896 99.8163L86.2075 96.6125L85.8254 93.7615C85.7372 93.0561 85.0906 92.5564 84.4146 92.6446C83.7092 92.7328 83.2095 93.3794 83.2977 94.0554L83.5328 96.0835L83.6504 96.9359C83.7386 97.6413 83.2389 98.2585 82.5335 98.3467C81.828 98.4349 81.2108 97.9352 81.1226 97.2298L81.0051 96.3774L80.7405 94.3199C80.5936 93.0267 79.3885 92.1155 78.0952 92.2625C76.802 92.4094 75.8908 93.6145 76.0378 94.9078L76.3317 97.3767L77.5074 107.017L78.4479 114.601C78.5949 115.894 79.8 116.805 81.0932 116.658C82.3865 116.511 83.2977 115.306 83.1507 114.013L82.651 109.927L81.8574 103.579L81.7399 102.726C81.6517 102.021 82.1514 101.403 82.8568 101.315C83.5622 101.227 84.1794 101.727 84.2676 102.432L84.3852 103.285L84.973 107.929C85.0612 108.634 85.7078 109.134 86.3839 109.046C87.0893 108.957 87.589 108.311 87.5008 107.635L86.9423 103.108L86.8541 102.491C86.8247 102.226 87.0011 101.991 87.2656 101.962C87.5302 101.933 87.7653 102.109 87.7947 102.373L87.8829 102.991L88.2062 105.636C88.3238 106.488 89.088 107.106 89.9403 106.988C90.7927 106.87 91.41 106.106 91.2924 105.254L89.6464 91.8216C89.617 90.9692 88.8234 90.352 87.971 90.4401Z" fill="#3069B3"/>
<path d="M91.851 107.635C90.9987 107.752 90.3814 108.517 90.499 109.369L90.6754 110.78C90.7929 111.632 91.5571 112.249 92.4095 112.132C93.2619 112.014 93.8791 111.25 93.7615 110.398L93.5852 108.987C93.497 108.134 92.7034 107.517 91.851 107.635Z" fill="#3069B3"/>
<path d="M79.8885 125.035C79.3301 125.358 79.1537 126.093 79.477 126.652L79.9473 127.445L80.3588 128.151C80.6821 128.709 81.4169 128.886 81.9754 128.562C82.5339 128.239 82.7102 127.504 82.3869 126.946L81.5051 125.447C81.1818 124.888 80.447 124.712 79.8885 125.035Z" fill="#D2232A"/>
<path d="M81.3875 134.794C80.8878 135.205 80.7996 135.94 81.2111 136.469L81.799 137.204L82.328 137.85C82.7395 138.35 83.4743 138.438 84.0034 138.027C84.5031 137.615 84.5912 136.88 84.1797 136.351L83.0922 134.999C82.622 134.47 81.8871 134.382 81.3875 134.794Z" fill="#D2232A"/>
<path d="M69.3074 95.2899C68.5138 95.2899 67.8377 95.9072 67.8377 96.7301L67.8083 98.0528C67.8083 98.8464 68.4256 99.5224 69.2486 99.5224C70.0422 99.5224 70.7182 98.9052 70.7182 98.0822L70.7476 96.7595C70.7476 95.9659 70.101 95.2899 69.3074 95.2899Z" fill="#FDC10F"/>
<path d="M72.746 61.9296C73.422 62.253 74.245 61.959 74.5389 61.283L75.068 60.1661C75.3913 59.4901 75.0974 58.6671 74.4214 58.3732C73.7453 58.0499 72.9224 58.3438 72.6284 59.0198L72.0994 60.1367C71.7761 60.8127 72.07 61.6357 72.746 61.9296Z" fill="#D2232A"/>
<path d="M67.632 76.3609C68.308 76.6842 69.131 76.3903 69.4249 75.7142L69.807 74.9206L71.0415 72.3047L72.2466 69.777C72.3347 69.5712 72.5993 69.483 72.805 69.5712C73.0108 69.6594 73.0989 69.9239 73.0108 70.1297L71.8057 72.6574L70.7476 74.9206C70.483 75.4791 70.7182 76.1257 71.2766 76.3902C71.8351 76.6548 72.4817 76.4196 72.7462 75.8612L73.5104 74.274L73.8337 73.598C74.0983 73.0395 74.7449 72.8044 75.3034 73.0689C75.8618 73.3334 76.097 73.9801 75.8324 74.5385L75.5091 75.2146L74.7449 76.8311C74.2746 77.8599 74.7155 79.0944 75.7149 79.5646C76.7436 80.0349 77.9781 79.594 78.4483 78.5947L79.3595 76.6548L82.9454 69.0422L85.767 63.0461C86.2373 62.0174 85.7964 60.7829 84.7971 60.3126C83.7684 59.8424 82.5339 60.2832 82.0636 61.2826L80.5352 64.5157L78.1838 69.5418L77.8605 70.2179C77.596 70.7763 76.9493 71.0114 76.3909 70.7469C75.8324 70.4824 75.5973 69.8358 75.8618 69.2773L76.1851 68.6013L77.9193 64.9272C78.1838 64.3688 77.9487 63.7221 77.3902 63.4576C76.8318 63.1931 76.1851 63.4282 75.9206 63.9867L74.2159 67.5725L73.9807 68.0722C73.8925 68.278 73.628 68.3661 73.4223 68.278C73.2165 68.1898 73.1283 67.9253 73.2165 67.7195L73.4516 67.2198L74.451 65.133C74.7743 64.457 74.4804 63.634 73.8044 63.34C73.1283 63.0167 72.3053 63.3107 72.0114 63.9867L67.0147 74.6267C66.6914 75.2146 66.9559 76.0375 67.632 76.3609Z" fill="#D2232A"/>
<path d="M113.102 15.8423C112.484 15.8423 111.926 15.4602 111.691 14.8724C111.397 14.1082 111.808 13.2558 112.573 12.9619C113.748 12.521 114.924 12.1095 116.1 11.7274C118.304 11.022 120.538 10.3754 122.772 9.8463C123.565 9.64055 124.388 10.1402 124.565 10.9338C124.77 11.7274 124.271 12.5504 123.477 12.7267C121.302 13.2558 119.127 13.8731 117.011 14.5491C115.864 14.9312 114.718 15.3133 113.601 15.7248C113.454 15.8129 113.278 15.8423 113.102 15.8423Z" fill="#3069B3"/>
<path d="M100.463 21.6915C99.9336 21.6915 99.434 21.427 99.1694 20.9273C98.7579 20.2219 99.0225 19.3107 99.7279 18.8992C101.256 18.0468 102.843 17.2238 104.401 16.4303C105.136 16.0775 106.018 16.3715 106.4 17.1063C106.753 17.8411 106.459 18.7523 105.724 19.105C104.196 19.8398 102.667 20.6334 101.198 21.4857C100.962 21.6327 100.698 21.6915 100.463 21.6915Z" fill="#3069B3"/>
<path d="M227.32 67.6904C226.733 67.6904 226.145 67.3377 225.939 66.7205C225.586 65.8093 225.234 64.9276 224.881 64.0458C224.175 62.341 223.382 60.6363 222.559 58.9609C222.206 58.2261 222.5 57.3443 223.235 56.9622C223.97 56.6095 224.852 56.9035 225.234 57.6383C226.086 59.343 226.88 61.136 227.614 62.8995C227.997 63.8107 228.379 64.7512 228.702 65.6624C228.996 66.4266 228.614 67.279 227.85 67.5729C227.673 67.6611 227.497 67.6904 227.32 67.6904Z" fill="#3069B3"/>
<path d="M218.826 50.9072C218.327 50.9072 217.856 50.6721 217.563 50.2312C216.387 48.4383 215.152 46.6453 213.859 44.9406C212.595 43.2946 211.273 41.6486 209.891 40.0908C209.362 39.4736 209.421 38.533 210.038 37.9746C210.655 37.4455 211.596 37.5043 212.154 38.1215C213.565 39.7381 214.947 41.4135 216.24 43.1476C217.592 44.9112 218.885 46.7629 220.09 48.6146C220.531 49.2906 220.355 50.2312 219.649 50.6721C219.385 50.819 219.091 50.9072 218.826 50.9072Z" fill="#3069B3"/>
<path d="M198.809 29.0689C198.486 29.0689 198.163 28.9807 197.898 28.7456C197.722 28.5986 197.546 28.4517 197.369 28.3341C196.723 27.8344 196.605 26.8939 197.105 26.2472C197.604 25.6006 198.545 25.483 199.192 25.9827C199.368 26.1297 199.574 26.2766 199.75 26.4236C200.397 26.9233 200.514 27.8638 200.015 28.5104C199.691 28.8632 199.25 29.0689 198.809 29.0689Z" fill="#3069B3"/>
<path d="M182.438 18.9287C182.232 18.9287 181.997 18.8699 181.791 18.7817C176.03 16.0188 169.946 13.9026 163.744 12.4918C162.951 12.3154 162.451 11.5218 162.627 10.6988C162.804 9.90523 163.597 9.40556 164.42 9.58191C170.857 11.0515 177.147 13.256 183.085 16.0776C183.819 16.4303 184.143 17.3121 183.79 18.0763C183.525 18.6348 182.996 18.9287 182.438 18.9287Z" fill="#3069B3"/>
<defs>
<linearGradient id="paint0_linear" x1="72.1611" y1="135.064" x2="113.56" y2="135.064" gradientUnits="userSpaceOnUse">
<stop stop-color="#16BECF"/>
<stop offset="1" stop-color="#2B93D1"/>
</linearGradient>
<linearGradient id="paint1_linear" x1="177.572" y1="53.2788" x2="242.735" y2="53.2788" gradientUnits="userSpaceOnUse">
<stop stop-color="#5AC8DC"/>
<stop offset="1" stop-color="#58A2D9"/>
</linearGradient>
<linearGradient id="paint2_linear" x1="177.572" y1="62.763" x2="242.734" y2="62.763" gradientUnits="userSpaceOnUse">
<stop stop-color="#5AC8DC"/>
<stop offset="1" stop-color="#58A2D9"/>
</linearGradient>
<linearGradient id="paint3_linear" x1="208.329" y1="79.6846" x2="205.645" y2="12.3842" gradientUnits="userSpaceOnUse">
<stop stop-color="#5AC8DC"/>
<stop offset="1" stop-color="#58A2D9"/>
</linearGradient>
<linearGradient id="paint4_linear" x1="165.314" y1="61.2787" x2="219.663" y2="25.1562" gradientUnits="userSpaceOnUse">
<stop stop-color="#16BECF"/>
<stop offset="1" stop-color="#2B93D1"/>
</linearGradient>
<linearGradient id="paint5_linear" x1="177.572" y1="141.06" x2="242.734" y2="141.06" gradientUnits="userSpaceOnUse">
<stop stop-color="#5AC8DC"/>
<stop offset="1" stop-color="#58A2D9"/>
</linearGradient>
<linearGradient id="paint6_linear" x1="-195.181" y1="141.655" x2="300.183" y2="141.655" gradientUnits="userSpaceOnUse">
<stop stop-color="#16BECF"/>
<stop offset="1" stop-color="#2B93D1"/>
</linearGradient>
</defs>
</svg>
