<svg width="68" height="46" viewBox="0 0 68 46" fill="none" xmlns="http://www.w3.org/2000/svg">
<path d="M55.8012 6.3241H11.7652C10.9622 6.3241 10.311 6.97509 10.311 7.77823V29.7406C10.311 30.5437 10.9622 31.1947 11.7652 31.1947C12.5682 31.1947 13.2193 30.5437 13.2193 29.7406V9.23223H54.3471V29.7404C54.3471 30.5436 54.9982 31.1946 55.8012 31.1946C56.6042 31.1946 57.2553 30.5436 57.2553 29.7404V7.7781C57.2552 6.97509 56.6041 6.3241 55.8012 6.3241Z" fill="#7998DF"/>
<path d="M66.2579 34.9331H63.5797V4.39553C63.5797 1.97184 61.6078 0 59.1841 0H8.38248C5.95866 0 3.98696 1.97184 3.98696 4.39553V34.9331H1.30871C0.585929 34.9331 0 35.5189 0 36.2418V38.811C0 42.371 2.89626 45.2673 6.45631 45.2673H61.1102C64.6702 45.2673 67.5665 42.371 67.5665 38.811V36.2418C67.5666 35.5189 66.9808 34.9331 66.2579 34.9331ZM6.89509 4.39553C6.89509 3.57549 7.56245 2.90814 8.38248 2.90814H59.1839C60.0042 2.90814 60.6713 3.57536 60.6713 4.39553V34.9331H40.9819C40.8892 34.9301 40.7935 34.938 40.6985 34.9564C40.0824 35.0749 39.6373 35.6141 39.6373 36.2413C39.6373 37.346 38.7386 38.2446 37.6342 38.2446H29.9325C28.8279 38.2446 27.9294 37.3459 27.9294 36.2413C27.9294 35.5085 27.3223 34.9172 26.5904 34.9329H6.89509V4.39553ZM64.9492 38.811C64.9492 40.9278 63.2269 42.6499 61.1103 42.6499H6.45631C4.33957 42.6499 2.61741 40.9278 2.61741 38.811V37.5506H25.5007C26.0665 39.4629 27.8392 40.8621 29.9324 40.8621H37.6341C39.7273 40.8621 41.5 39.4627 42.0659 37.5506H64.9493V38.811H64.9492Z" fill="#7998DF"/>
<path d="M35.9383 14.7764C35.3704 14.2085 34.4499 14.2085 33.8818 14.7764L24.7369 23.9216C24.1691 24.4895 24.1691 25.4102 24.7369 25.978C25.0209 26.262 25.3931 26.4039 25.7651 26.4039C26.1372 26.4039 26.5092 26.2618 26.7932 25.978L35.9383 16.8329C36.5062 16.2651 36.5062 15.3443 35.9383 14.7764Z" fill="#7998DF"/>
<path d="M41.3588 20.076C40.7908 19.5082 39.8703 19.5082 39.3023 20.076L35.6593 23.7191C35.0914 24.2869 35.0914 25.2077 35.6593 25.7756C35.9433 26.0596 36.3154 26.2015 36.6874 26.2015C37.0597 26.2015 37.4316 26.0596 37.7156 25.7756L41.3586 22.1326C41.9266 21.5647 41.9266 20.644 41.3588 20.076Z" fill="#7998DF"/>
</svg>
