<svg width="66" height="66" viewBox="0 0 66 66" fill="none" xmlns="http://www.w3.org/2000/svg">
<path d="M58.5968 48.0816C60.6724 46.3069 61.9919 43.6722 61.9919 40.7337C61.9919 35.4026 57.6547 31.0654 52.3237 31.0654C46.9934 31.0654 42.6569 35.4013 42.6554 40.7312C42.6542 35.4013 38.3175 31.0654 32.9872 31.0654C27.6562 31.0654 23.319 35.4026 23.319 40.7337C23.319 43.6765 24.6421 46.3144 26.7229 48.0892C25.4684 48.7533 24.329 49.61 23.3439 50.6208C22.3407 49.5907 21.1866 48.7351 19.9293 48.0768C22.0017 46.3023 23.319 43.6696 23.319 40.7337C23.319 35.4026 18.9818 31.0654 13.6508 31.0654C8.31971 31.0654 3.98253 35.4026 3.98253 40.7337C3.98253 43.6722 5.30201 46.3068 7.37766 48.0816C3.09372 50.3333 0.012085 54.8672 0.012085 60.1991V64.0665C0.0119561 65.1343 0.851909 66.0001 1.91977 66.0001C2.65415 66.0001 62.8009 66.0001 64.0545 66.0001C65.1224 66.0001 65.9881 65.1343 65.9881 64.0665V60.1991C65.9881 54.9206 62.9281 50.3583 58.5968 48.0816ZM52.3235 34.9327C55.5222 34.9327 58.1244 37.5351 58.1244 40.7337C58.1244 43.9323 55.5221 46.5346 52.3235 46.5346C49.1249 46.5346 46.5226 43.9322 46.5226 40.7337C46.5226 37.5351 49.125 34.9327 52.3235 34.9327ZM42.6554 40.7382C42.6567 43.6723 43.9736 46.3031 46.045 48.0768C44.7875 48.7351 43.6335 49.5905 42.6304 50.6208C41.6453 49.6101 40.5061 48.7533 39.2515 48.0892C41.3313 46.3154 42.654 43.6792 42.6554 40.7382ZM32.9871 34.9327C36.1858 34.9327 38.788 37.5351 38.788 40.7337C38.788 43.9323 36.1856 46.5346 32.9871 46.5346C29.7884 46.5346 27.1862 43.9322 27.1862 40.7337C27.186 37.5351 29.7884 34.9327 32.9871 34.9327ZM13.6505 34.9327C16.8492 34.9327 19.4514 37.5351 19.4514 40.7337C19.4514 43.9323 16.849 46.5346 13.6505 46.5346C10.4519 46.5346 7.84959 43.9322 7.84959 40.7337C7.84959 37.5351 10.4518 34.9327 13.6505 34.9327ZM19.4773 60.1991V62.1327H3.85336V60.1991C3.85336 54.8886 8.33994 50.402 13.6505 50.402C16.5136 50.402 19.1946 51.6603 21.0226 53.8152C20.0204 55.7217 19.4773 57.8944 19.4773 60.1991ZM42.6811 62.1329H23.3187V60.1993C23.3187 54.7971 27.6559 50.4021 32.987 50.4021C38.318 50.4021 42.681 54.7972 42.681 60.1993V62.1329H42.6811ZM62.1466 62.1329H46.5226V60.1993C46.5226 57.8946 45.9536 55.7218 44.9515 53.8152C46.7794 51.6603 49.4604 50.402 52.3237 50.402C57.6342 50.402 62.1466 54.8886 62.1466 60.1991V62.1329Z" fill="#7998DF"/>
<path d="M45.2661 9.0101L37.8509 7.93257L34.5286 1.08726C33.8245 -0.363322 31.7526 -0.361518 31.0494 1.08726L27.7271 7.93257L20.312 9.0101C18.7296 9.24007 18.0943 11.1912 19.2404 12.3083L24.6117 17.5442L23.3438 24.9375C23.0734 26.5134 24.7328 27.7207 26.1494 26.9759L32.789 23.4852L39.4285 26.9759C40.8424 27.7193 42.5053 26.518 42.2342 24.9375L40.9663 17.5442L46.3378 12.3083C47.4826 11.192 46.8497 9.2402 45.2661 9.0101ZM37.5387 15.4843C37.083 15.9285 36.875 16.5685 36.9825 17.1958L37.7601 21.7294L33.6887 19.589C33.1255 19.2929 32.4524 19.2929 31.8892 19.589L27.8178 21.7294L28.5954 17.1958C28.7029 16.5685 28.495 15.9285 28.0393 15.4843L24.7455 12.2735L29.2973 11.6122C29.9315 11.52 30.479 11.1195 30.7588 10.5429L32.7888 6.36004L34.819 10.5429C35.0988 11.1195 35.6462 11.52 36.2804 11.6122L40.8325 12.2736L37.5387 15.4843Z" fill="#7998DF"/>
</svg>
