<svg width="66" height="66" viewBox="0 0 66 66" fill="none" xmlns="http://www.w3.org/2000/svg">
<path d="M58.5847 48.0816C60.6603 46.3069 61.9798 43.6722 61.9798 40.7337C61.9798 35.4026 57.6426 31.0654 52.3116 31.0654C46.9813 31.0654 42.6448 35.4013 42.6434 40.7312C42.6421 35.4013 38.3054 31.0654 32.9751 31.0654C27.6441 31.0654 23.3069 35.4026 23.3069 40.7337C23.3069 43.6765 24.63 46.3144 26.7108 48.0892C25.4563 48.7533 24.3169 49.61 23.3318 50.6208C22.3286 49.5907 21.1745 48.7351 19.9172 48.0768C21.9896 46.3023 23.3069 43.6696 23.3069 40.7337C23.3069 35.4026 18.9697 31.0654 13.6387 31.0654C8.30762 31.0654 3.97044 35.4026 3.97044 40.7337C3.97044 43.6722 5.28993 46.3068 7.36557 48.0816C3.08163 50.3333 1.48353e-08 54.8672 1.48353e-08 60.1991V64.0665C-0.000128891 65.1343 0.839824 66.0001 1.90768 66.0001C2.64206 66.0001 62.7888 66.0001 64.0424 66.0001C65.1103 66.0001 65.976 65.1343 65.976 64.0665V60.1991C65.976 54.9206 62.9161 50.3583 58.5847 48.0816ZM52.3115 34.9327C55.5101 34.9327 58.1124 37.5351 58.1124 40.7337C58.1124 43.9323 55.51 46.5346 52.3115 46.5346C49.1128 46.5346 46.5105 43.9322 46.5105 40.7337C46.5105 37.5351 49.1129 34.9327 52.3115 34.9327ZM42.6434 40.7382C42.6446 43.6723 43.9615 46.3031 46.0329 48.0768C44.7755 48.7351 43.6214 49.5905 42.6183 50.6208C41.6332 49.6101 40.494 48.7533 39.2395 48.0892C41.3192 46.3154 42.6419 43.6792 42.6434 40.7382ZM32.975 34.9327C36.1737 34.9327 38.7759 37.5351 38.7759 40.7337C38.7759 43.9323 36.1735 46.5346 32.975 46.5346C29.7763 46.5346 27.1741 43.9322 27.1741 40.7337C27.174 37.5351 29.7763 34.9327 32.975 34.9327ZM13.6384 34.9327C16.8371 34.9327 19.4393 37.5351 19.4393 40.7337C19.4393 43.9323 16.837 46.5346 13.6384 46.5346C10.4399 46.5346 7.8375 43.9322 7.8375 40.7337C7.8375 37.5351 10.4397 34.9327 13.6384 34.9327ZM19.4652 60.1991V62.1327H3.84128V60.1991C3.84128 54.8886 8.32786 50.402 13.6384 50.402C16.5015 50.402 19.1825 51.6603 21.0106 53.8152C20.0083 55.7217 19.4652 57.8944 19.4652 60.1991ZM42.669 62.1329H23.3066V60.1993C23.3066 54.7971 27.6438 50.4021 32.9749 50.4021C38.3059 50.4021 42.6689 54.7972 42.6689 60.1993V62.1329H42.669ZM62.1345 62.1329H46.5105V60.1993C46.5105 57.8946 45.9415 55.7218 44.9394 53.8152C46.7673 51.6603 49.4483 50.402 52.3116 50.402C57.6221 50.402 62.1345 54.8886 62.1345 60.1991V62.1329Z" fill="#7998DF"/>
<path d="M45.254 9.0101L37.8388 7.93257L34.5165 1.08726C33.8124 -0.363322 31.7405 -0.361518 31.0373 1.08726L27.715 7.93257L20.2999 9.0101C18.7175 9.24007 18.0822 11.1912 19.2283 12.3083L24.5996 17.5442L23.3317 24.9375C23.0614 26.5134 24.7208 27.7207 26.1373 26.9759L32.7769 23.4852L39.4165 26.9759C40.8303 27.7193 42.4932 26.518 42.2221 24.9375L40.9542 17.5442L46.3257 12.3083C47.4705 11.192 46.8376 9.2402 45.254 9.0101ZM37.5266 15.4843C37.0709 15.9285 36.863 16.5685 36.9705 17.1958L37.748 21.7294L33.6767 19.589C33.1135 19.2929 32.4403 19.2929 31.8771 19.589L27.8057 21.7294L28.5833 17.1958C28.6908 16.5685 28.4829 15.9285 28.0272 15.4843L24.7334 12.2735L29.2852 11.6122C29.9194 11.52 30.4669 11.1195 30.7467 10.5429L32.7768 6.36004L34.8069 10.5429C35.0868 11.1195 35.6341 11.52 36.2683 11.6122L40.8204 12.2736L37.5266 15.4843Z" fill="#7998DF"/>
</svg>
