<svg width="44" height="56" viewBox="0 0 44 56" fill="none" xmlns="http://www.w3.org/2000/svg">
<path d="M43.9737 45.7622L41.4955 14.5347C41.341 12.5228 39.6396 10.9468 37.6219 10.9468H32.7269V10.7268C32.7269 4.81198 27.9149 0 22.0001 0C16.0853 0 11.2734 4.81198 11.2734 10.7268V10.9468H6.37846C4.36065 10.9468 2.65911 12.5227 2.50521 14.5304L0.0262208 45.7664C-0.165621 48.2674 0.702003 50.7573 2.40647 52.5975C4.11093 54.4377 6.52717 55.4932 9.03553 55.4932H34.9646C37.4729 55.4932 39.8892 54.4378 41.5938 52.5975C43.2983 50.7572 44.1658 48.2674 43.9737 45.7622ZM14.5238 10.7268C14.5238 6.60435 17.8778 3.25047 22.0001 3.25047C26.1225 3.25047 29.4764 6.60445 29.4764 10.7268V10.9468H14.5238V10.7268ZM39.209 50.3888C38.1015 51.5843 36.5943 52.2428 34.9646 52.2428H9.03563C7.40595 52.2428 5.89875 51.5843 4.79127 50.3888C3.6839 49.1932 3.14262 47.6399 3.26705 46.0193L5.74582 14.7832C5.77096 14.4546 6.04886 14.1973 6.37846 14.1973H11.2734V18.2005C11.2734 19.098 12.0011 19.8257 12.8986 19.8257C13.7961 19.8257 14.5238 19.098 14.5238 18.2005V14.1973H29.4764V18.2005C29.4764 19.098 30.2041 19.8257 31.1017 19.8257C31.9992 19.8257 32.7269 19.098 32.7269 18.2005V14.1973H37.6219C37.9514 14.1973 38.2293 14.4547 38.2549 14.7875L40.7331 46.0149C40.8578 47.6399 40.3164 49.1931 39.209 50.3888Z" fill="#7998DF"/>
<path d="M29.3221 27.5606C28.6876 26.9259 27.6585 26.9259 27.0239 27.5606L19.7668 34.8177L16.9763 32.0272C16.3418 31.3925 15.3126 31.3925 14.6779 32.0272C14.0432 32.6619 14.0432 33.6909 14.6779 34.3256L18.6176 38.2653C18.935 38.5826 19.351 38.7414 19.7667 38.7414C20.1825 38.7414 20.5986 38.5827 20.9158 38.2653L29.322 29.8591C29.9568 29.2243 29.9568 28.1953 29.3221 27.5606Z" fill="#7998DF"/>
</svg>
