<svg width="73" height="60" viewBox="0 0 73 60" fill="none" xmlns="http://www.w3.org/2000/svg">
<path d="M65.5261 59.9998H8.40264C4.29719 59.9998 0.929443 56.6842 0.929443 52.5716V20.3399C0.929443 16.2591 4.26512 12.9116 8.40264 12.9116H65.5261C69.6316 12.9116 72.9993 16.2272 72.9993 20.3399V52.5716C72.9993 56.6842 69.6316 59.9998 65.5261 59.9998ZM8.40264 16.7373C6.41407 16.7373 4.7783 18.3633 4.7783 20.3399V52.5716C4.7783 54.5482 6.41407 56.1741 8.40264 56.1741H65.5261C67.5147 56.1741 69.1505 54.5482 69.1505 52.5716V20.3399C69.1505 18.3633 67.5147 16.7373 65.5261 16.7373H8.40264Z" fill="#7998DF"/>
<path d="M24.1189 14.8247H20.27V58.0872H24.1189V14.8247Z" fill="#7998DF"/>
<path d="M22.7076 16.0679L19.7568 13.6131L28.8017 2.83733C31.5279 -0.0957167 35.8579 -0.828979 39.2898 1.02012C40.701 1.78526 41.8557 2.93298 42.7538 4.3995C45.7366 9.27729 42.5613 14.1551 40.4765 16.0361L37.8785 13.1986C38.0068 13.0711 41.535 9.7555 39.4502 6.34424C38.9049 5.45157 38.2314 4.78207 37.4295 4.33574C35.5692 3.31555 33.1958 3.73 31.6562 5.35593L22.7076 16.0679Z" fill="#7998DF"/>
<path d="M21.2644 16.0692L12.3158 5.38903C10.7763 3.7631 8.40279 3.34865 6.54251 4.36884C5.74066 4.81518 5.06711 5.48468 4.52186 6.37734C2.40498 9.82049 6.02933 13.168 6.09347 13.1999L3.49549 16.0373C1.4107 14.1563 -1.76461 9.27851 1.21825 4.40072C2.11632 2.9342 3.27098 1.78648 4.68223 1.02134C8.11412 -0.827759 12.4441 -0.094496 15.1704 2.83855L15.2345 2.90232L24.2152 13.6143L21.2644 16.0692Z" fill="#7998DF"/>
<path d="M31.6562 27.8639C31.0789 27.8639 30.5336 27.6088 30.1487 27.1306L21.9699 16.9287C21.2964 16.0998 21.4567 14.8883 22.2906 14.2507C23.1246 13.5812 24.3434 13.7406 24.9848 14.5695L33.1637 24.7714C33.8372 25.6003 33.6768 26.8118 32.8429 27.4494C32.4901 27.7364 32.0732 27.8639 31.6562 27.8639Z" fill="#7998DF"/>
<path d="M13.1817 27.864C12.7968 27.864 12.412 27.7365 12.0591 27.5133C11.1932 26.9076 11.0007 25.6961 11.6101 24.8353L18.9871 14.6334C19.5965 13.7726 20.8153 13.5813 21.6813 14.1871C22.5473 14.7928 22.7397 16.0043 22.1303 16.8651L14.7533 27.067C14.3685 27.5771 13.7591 27.864 13.1817 27.864Z" fill="#7998DF"/>
<path d="M51.0609 30.2549H38.1351C37.0767 30.2549 36.2107 29.3941 36.2107 28.3421C36.2107 27.29 37.0767 26.4292 38.1351 26.4292H51.0609C52.1193 26.4292 52.9853 27.29 52.9853 28.3421C52.9853 29.3941 52.1193 30.2549 51.0609 30.2549Z" fill="#7998DF"/>
<path d="M60.0415 38.3845H38.1351C37.0767 38.3845 36.2107 37.5238 36.2107 36.4717C36.2107 35.4196 37.0767 34.5588 38.1351 34.5588H60.0415C61.1 34.5588 61.966 35.4196 61.966 36.4717C61.966 37.5238 61.1 38.3845 60.0415 38.3845Z" fill="#7998DF"/>
<path d="M60.0415 46.5142H38.1351C37.0767 46.5142 36.2107 45.6534 36.2107 44.6013C36.2107 43.5493 37.0767 42.6885 38.1351 42.6885H60.0415C61.1 42.6885 61.966 43.5493 61.966 44.6013C61.966 45.6534 61.1 46.5142 60.0415 46.5142Z" fill="#7998DF"/>
</svg>
