<svg width="54" height="68" viewBox="0 0 54 68" fill="none" xmlns="http://www.w3.org/2000/svg">
<path d="M53.8843 56.0758L50.8475 17.8104C50.6583 15.3452 48.5734 13.4139 46.1009 13.4139H40.1027V13.1443C40.1027 5.89648 34.2063 0 26.9584 0C19.7106 0 13.8141 5.89648 13.8141 13.1443V13.4139H7.81601C5.34344 13.4139 3.25841 15.345 3.06982 17.8052L0.0321303 56.081C-0.202948 59.1457 0.860216 62.1968 2.94883 64.4516C5.03744 66.7065 7.99822 68 11.0719 68H42.8448C45.9183 68 48.8792 66.7067 50.968 64.4516C53.0566 62.1966 54.1196 59.1457 53.8843 56.0758ZM17.7971 13.1443C17.7971 8.0928 21.907 3.98305 26.9584 3.98305C32.0098 3.98305 36.1197 8.09293 36.1197 13.1443V13.4139H17.7971V13.1443ZM48.0457 61.7452C46.6886 63.2101 44.8417 64.017 42.8448 64.017H11.072C9.07507 64.017 7.22818 63.2101 5.8711 61.7452C4.51415 60.2801 3.85089 58.3767 4.00336 56.3909L7.04078 18.115C7.07159 17.7123 7.41212 17.397 7.81601 17.397H13.8141V22.3024C13.8141 23.4022 14.7058 24.2939 15.8056 24.2939C16.9054 24.2939 17.7971 23.4022 17.7971 22.3024V17.397H36.1197V22.3024C36.1197 23.4022 37.0114 24.2939 38.1112 24.2939C39.211 24.2939 40.1027 23.4022 40.1027 22.3024V17.397H46.1009C46.5047 17.397 46.8452 17.7124 46.8766 18.1203L49.9133 56.3855C50.0661 58.3767 49.4027 60.28 48.0457 61.7452Z" fill="#7998DF"/>
</svg>
