<svg width="81" height="55" viewBox="0 0 81 55" fill="none" xmlns="http://www.w3.org/2000/svg">
<path d="M79.4313 42.245H76.2205V5.6359C76.2205 2.73033 73.8566 0.366455 70.9511 0.366455H10.0491C7.14336 0.366455 4.77964 2.73033 4.77964 5.6359V42.245H1.5689C0.702423 42.245 0 42.9472 0 43.8139V46.8938C0 51.1616 3.47209 54.6337 7.73994 54.6337H73.2601C77.5279 54.6337 81 51.1616 81 46.8938V43.8139C81.0002 42.9472 80.2979 42.245 79.4313 42.245ZM8.26597 5.6359C8.26597 4.65282 9.06601 3.85279 10.0491 3.85279H70.9508C71.9342 3.85279 72.7339 4.65266 72.7339 5.6359V42.245H49.1299C49.0187 42.2413 48.904 42.2508 48.7901 42.2728C48.0516 42.4149 47.518 43.0613 47.518 43.8132C47.518 45.1376 46.4406 46.2148 45.1166 46.2148H35.8837C34.5594 46.2148 33.4823 45.1374 33.4823 43.8132C33.4823 42.9347 32.7544 42.2258 31.877 42.2447H8.26597V5.6359ZM77.8624 46.8938C77.8624 49.4315 75.7976 51.4959 73.2602 51.4959H7.73994C5.20236 51.4959 3.13781 49.4315 3.13781 46.8938V45.3828H30.5708C31.249 47.6753 33.3741 49.3527 35.8835 49.3527H45.1165C47.6259 49.3527 49.751 47.6751 50.4294 45.3828H77.8625V46.8938H77.8624Z" fill="#7998DF"/>
</svg>
