<svg width="73" height="60" viewBox="0 0 73 60" fill="none" xmlns="http://www.w3.org/2000/svg">
<path d="M65.5268 59.9998H8.40337C4.29793 59.9998 0.930176 56.6842 0.930176 52.5716V20.3399C0.930176 16.2591 4.26585 12.9116 8.40337 12.9116H65.5268C69.6323 12.9116 73 16.2272 73 20.3399V52.5716C73 56.6842 69.6323 59.9998 65.5268 59.9998ZM8.40337 16.7373C6.4148 16.7373 4.77903 18.3633 4.77903 20.3399V52.5716C4.77903 54.5482 6.4148 56.1741 8.40337 56.1741H65.5268C67.5154 56.1741 69.1512 54.5482 69.1512 52.5716V20.3399C69.1512 18.3633 67.5154 16.7373 65.5268 16.7373H8.40337Z" fill="#7998DF"/>
<path d="M24.1195 14.8247H20.2706V58.0872H24.1195V14.8247Z" fill="#7998DF"/>
<path d="M22.7082 16.0679L19.7574 13.6131L28.8023 2.83733C31.5285 -0.0957167 35.8585 -0.828979 39.2904 1.02012C40.7017 1.78526 41.8563 2.93298 42.7544 4.3995C45.7372 9.27729 42.5619 14.1551 40.4771 16.0361L37.8792 13.1986C38.0075 13.0711 41.5356 9.7555 39.4508 6.34424C38.9055 5.45157 38.232 4.78207 37.4301 4.33574C35.5698 3.31555 33.1964 3.73 31.6568 5.35593L22.7082 16.0679Z" fill="#7998DF"/>
<path d="M21.265 16.0692L12.3164 5.38903C10.7769 3.7631 8.4034 3.34865 6.54312 4.36884C5.74127 4.81518 5.06772 5.48468 4.52247 6.37734C2.4056 9.82049 6.02994 13.168 6.09408 13.1999L3.4961 16.0373C1.41131 14.1563 -1.764 9.27851 1.21886 4.40072C2.11693 2.9342 3.27159 1.78648 4.68284 1.02134C8.11473 -0.827759 12.4447 -0.094496 15.171 2.83855L15.2351 2.90232L24.2158 13.6143L21.265 16.0692Z" fill="#7998DF"/>
<path d="M31.6568 27.8639C31.0795 27.8639 30.5342 27.6088 30.1493 27.1306L21.9705 16.9287C21.297 16.0998 21.4573 14.8883 22.2913 14.2507C23.1252 13.5812 24.344 13.7406 24.9855 14.5695L33.1643 24.7714C33.8378 25.6003 33.6775 26.8118 32.8435 27.4494C32.4907 27.7364 32.0738 27.8639 31.6568 27.8639Z" fill="#7998DF"/>
<path d="M13.1822 27.864C12.7973 27.864 12.4124 27.7365 12.0596 27.5133C11.1936 26.9076 11.0012 25.6961 11.6106 24.8353L18.9876 14.6334C19.597 13.7726 20.8158 13.5813 21.6818 14.1871C22.5478 14.7928 22.7402 16.0043 22.1308 16.8651L14.7538 27.067C14.3689 27.5771 13.7595 27.864 13.1822 27.864Z" fill="#7998DF"/>
<path d="M51.0615 30.2549H38.1357C37.0773 30.2549 36.2113 29.3941 36.2113 28.3421C36.2113 27.29 37.0773 26.4292 38.1357 26.4292H51.0615C52.1199 26.4292 52.9859 27.29 52.9859 28.3421C52.9859 29.3941 52.1199 30.2549 51.0615 30.2549Z" fill="#7998DF"/>
<path d="M60.0422 38.3845H38.1357C37.0773 38.3845 36.2113 37.5238 36.2113 36.4717C36.2113 35.4196 37.0773 34.5588 38.1357 34.5588H60.0422C61.1006 34.5588 61.9666 35.4196 61.9666 36.4717C61.9666 37.5238 61.1006 38.3845 60.0422 38.3845Z" fill="#7998DF"/>
<path d="M60.0422 46.5142H38.1357C37.0773 46.5142 36.2113 45.6534 36.2113 44.6013C36.2113 43.5493 37.0773 42.6885 38.1357 42.6885H60.0422C61.1006 42.6885 61.9666 43.5493 61.9666 44.6013C61.9666 45.6534 61.1006 46.5142 60.0422 46.5142Z" fill="#7998DF"/>
</svg>
