<svg width="24" height="13" viewBox="0 0 24 13" fill="none" xmlns="http://www.w3.org/2000/svg">
<path d="M23.378 11.7404C23.3502 11.681 23.3242 11.6316 23.3001 11.5921C22.901 10.8801 22.1385 10.0062 21.0128 8.97013L20.9891 8.94641L20.9771 8.93477L20.9651 8.92285H20.953C20.4422 8.44039 20.1186 8.11599 19.9832 7.94991C19.7353 7.63354 19.6798 7.3133 19.8152 6.98882C19.9109 6.74366 20.2705 6.22593 20.893 5.43491C21.2205 5.01569 21.4798 4.67971 21.6713 4.42657C23.0525 2.60744 23.6514 1.44499 23.4677 0.938763L23.3963 0.820465C23.3484 0.749245 23.2246 0.684092 23.0253 0.624673C22.8255 0.565379 22.5701 0.555573 22.2586 0.595089L18.8099 0.61869C18.754 0.599077 18.6742 0.600905 18.5703 0.624673C18.4665 0.648441 18.4146 0.660366 18.4146 0.660366L18.3546 0.690076L18.3069 0.725768C18.267 0.74937 18.2231 0.79088 18.1751 0.850216C18.1274 0.909344 18.0875 0.978735 18.0557 1.05781C17.6802 2.01479 17.2533 2.90453 16.7742 3.72701C16.4788 4.21744 16.2075 4.64248 15.9597 5.00236C15.7123 5.36211 15.5047 5.62717 15.3372 5.79707C15.1694 5.96715 15.018 6.10339 14.882 6.20632C14.7463 6.30928 14.6426 6.35279 14.5708 6.33687C14.4989 6.32096 14.4312 6.30517 14.367 6.28938C14.2554 6.21816 14.1655 6.1213 14.0978 5.99872C14.0297 5.87615 13.9839 5.72187 13.96 5.536C13.9362 5.35002 13.9221 5.19005 13.918 5.05554C13.9143 4.92121 13.916 4.73119 13.9241 4.48603C13.9324 4.24075 13.9362 4.0748 13.9362 3.98779C13.9362 3.6872 13.9421 3.36098 13.9539 3.00904C13.966 2.65709 13.9758 2.37824 13.984 2.17281C13.9921 1.96717 13.9959 1.7496 13.9959 1.52024C13.9959 1.29087 13.9818 1.11099 13.9539 0.980439C13.9264 0.850049 13.8842 0.723483 13.8285 0.600781C13.7725 0.478203 13.6906 0.383382 13.583 0.316069C13.4753 0.248838 13.3413 0.195485 13.1819 0.155845C12.7587 0.0609823 12.2199 0.00966592 11.5651 0.00168799C10.0803 -0.0141017 9.12619 0.0808854 8.70306 0.286525C8.53542 0.37341 8.38371 0.492123 8.24806 0.642291C8.10432 0.816351 8.08427 0.911339 8.18804 0.926962C8.66712 0.998057 9.00627 1.16813 9.20588 1.43701L9.27781 1.57949C9.33377 1.68229 9.38963 1.86429 9.44554 2.12523C9.50137 2.38618 9.5374 2.67484 9.55325 2.99104C9.5931 3.56849 9.5931 4.06279 9.55325 4.47398C9.51328 4.88535 9.47553 5.20559 9.4395 5.43495C9.40347 5.66432 9.34962 5.85018 9.27781 5.99249C9.20588 6.13485 9.15802 6.22186 9.13403 6.25344C9.11008 6.28502 9.09012 6.30492 9.07426 6.31273C8.97049 6.35212 8.86257 6.37219 8.75088 6.37219C8.63902 6.37219 8.50337 6.31676 8.34373 6.20599C8.18414 6.09521 8.01851 5.94305 7.84683 5.74925C7.67516 5.55541 7.48155 5.28453 7.26592 4.93658C7.05046 4.58863 6.8269 4.17739 6.59537 3.70287L6.40381 3.35874C6.28407 3.13735 6.12049 2.81499 5.91291 2.39195C5.70521 1.96875 5.52162 1.55938 5.36203 1.16393C5.29823 0.997849 5.20239 0.871408 5.07467 0.784398L5.01474 0.748705C4.97489 0.717126 4.91093 0.683593 4.82318 0.647859C4.73531 0.612166 4.64362 0.58657 4.54774 0.570822L1.26656 0.594423C0.931261 0.594423 0.703761 0.669673 0.583971 0.819966L0.536029 0.891061C0.51208 0.93066 0.5 0.993902 0.5 1.08095C0.5 1.16796 0.52395 1.27475 0.571891 1.40119C1.05088 2.51644 1.57178 3.59201 2.13457 4.62806C2.69737 5.66411 3.18643 6.49868 3.60146 7.13101C4.01657 7.7638 4.43969 8.36102 4.87083 8.92239C5.30196 9.48396 5.58735 9.84384 5.72698 10.0019C5.86677 10.1603 5.97658 10.2788 6.0564 10.3578L6.35583 10.6425C6.54743 10.8324 6.82878 11.0597 7.20002 11.3246C7.57135 11.5897 7.98243 11.8506 8.43349 12.1079C8.88464 12.3647 9.40947 12.5743 10.0083 12.7364C10.607 12.8986 11.1898 12.9638 11.7567 12.9323H13.1338C13.4131 12.9084 13.6247 12.8214 13.7686 12.6713L13.8162 12.6118C13.8482 12.5646 13.8782 12.4913 13.9059 12.3926C13.9339 12.2937 13.9479 12.1848 13.9479 12.0664C13.9397 11.7263 13.9658 11.4199 14.0255 11.1471C14.0852 10.8743 14.1533 10.6687 14.2293 10.5302C14.3054 10.3918 14.3912 10.2751 14.4867 10.1804C14.5824 10.0855 14.6506 10.0281 14.6906 10.0083C14.7304 9.9884 14.7622 9.97489 14.7861 9.96679C14.9777 9.90355 15.2032 9.9648 15.4629 10.1508C15.7224 10.3367 15.9658 10.5662 16.1935 10.8389C16.421 11.1119 16.6944 11.4182 17.0137 11.7582C17.3332 12.0984 17.6125 12.3512 17.8519 12.5175L18.0913 12.6599C18.2512 12.7549 18.4588 12.8419 18.7143 12.921C18.9694 13 19.1928 13.0198 19.3847 12.9802L22.4502 12.9329C22.7534 12.9329 22.9894 12.8831 23.1567 12.7845C23.3244 12.6856 23.424 12.5767 23.4562 12.4582C23.4882 12.3396 23.4899 12.2051 23.4622 12.0547C23.4338 11.9046 23.4059 11.7997 23.378 11.7404Z" fill="#A1AFCC"/>
</svg>
