<svg width="11" height="10" viewBox="0 0 11 10" fill="none" xmlns="http://www.w3.org/2000/svg">
<path d="M0.618325 4.0559L0.601154 4.06001H7.96185L5.64792 1.52181C5.53461 1.39789 5.47245 1.23003 5.47245 1.05384C5.47245 0.877648 5.53461 0.710953 5.64792 0.58674L6.00797 0.192468C6.12119 0.0685484 6.27206 3.05176e-05 6.43294 3.05176e-05C6.59392 3.05176e-05 6.74488 0.0680591 6.8581 0.191979L10.8246 4.53298C10.9383 4.65739 11.0004 4.82311 11 4.99939C11.0004 5.17666 10.9383 5.34247 10.8246 5.46669L6.8581 9.80808C6.74488 9.9319 6.59401 10 6.43294 10C6.27206 10 6.12119 9.93181 6.00797 9.80808L5.64792 9.41381C5.53461 9.29009 5.47245 9.12486 5.47245 8.94867C5.47245 8.77258 5.53461 8.61607 5.64792 8.49224L7.98797 5.93985H0.610098C0.278578 5.93985 0 5.62712 0 5.26446V4.70682C0 4.34417 0.286805 4.0559 0.618325 4.0559Z" fill="white"/>
</svg>
